<svg data-v-423bf9ae="" xmlns="http://www.w3.org/2000/svg" viewBox="0 0 488.3443724294017 60" class="font"><!----><!----><!----><g data-v-423bf9ae="" id="ed4d0aff-7b56-4050-a7d8-1eb719a9a7f0" fill="white" transform="matrix(4.966887448588033,0,0,4.966887448588033,-2.7814643928776945,-18.625828885879443)"><path d="M8.76 12.28C8.76 12.38 8.75 13.22 8.22 14.07C7.73 14.88 6.72 15.83 4.66 15.83C3.04 15.83 1.76 15.15 1.08 13.93C0.76 13.34 0.63 12.77 0.59 12.40C0.59 12.38 0.57 12.35 0.57 12.32C0.57 12.18 0.69 12.05 0.83 12.04L2.55 12.04C2.66 12.05 2.74 12.12 2.77 12.24L2.77 12.25C2.77 12.26 2.79 12.28 2.79 12.29C2.81 12.46 2.88 12.70 3.02 12.91C3.32 13.40 3.86 13.65 4.66 13.65C5.52 13.65 6.06 13.41 6.36 12.94C6.55 12.61 6.58 12.26 6.58 12.26C6.58 11.87 6.48 11.41 5.75 11.12C5.22 10.89 4.66 10.88 4.66 10.88C4.56 10.88 3.67 10.86 2.74 10.50C1.33 9.93 0.56 8.81 0.56 7.34C0.56 7.20 0.59 5.89 1.61 4.87C2.34 4.13 3.37 3.75 4.66 3.75C5.49 3.75 6.68 3.93 7.59 4.86C8.47 5.75 8.69 6.89 8.75 7.45L8.75 7.48C8.75 7.64 8.64 7.77 8.48 7.77L6.79 7.77C6.68 7.76 6.58 7.66 6.55 7.55L6.55 7.50C6.51 7.31 6.44 7.03 6.30 6.75C6.10 6.40 5.73 5.94 4.66 5.94C3.98 5.94 3.47 6.09 3.15 6.41C2.77 6.79 2.74 7.34 2.74 7.34C2.74 7.73 2.84 8.18 3.57 8.47C4.10 8.68 4.66 8.69 4.66 8.69C4.76 8.69 5.66 8.71 6.58 9.09C7.99 9.67 8.76 10.81 8.76 12.28ZM10.16 3.79L14.74 8.37L19.32 3.79L19.32 15.54C19.32 15.69 19.21 15.82 19.05 15.82L17.44 15.82C17.29 15.82 17.16 15.69 17.16 15.54L17.16 8.99L14.74 11.41L12.32 8.99L12.32 15.54C12.32 15.69 12.21 15.82 12.05 15.82L10.43 15.82C10.29 15.82 10.16 15.69 10.16 15.54ZM28.43 11.16C28.43 11.00 28.31 10.89 28.15 10.89L27.23 10.89L25.52 4.05L25.51 3.98C25.47 3.88 25.37 3.81 25.26 3.81L23.42 3.81C23.31 3.81 23.21 3.88 23.17 3.98L23.16 4.06L20.31 15.41C20.31 15.43 20.31 15.44 20.30 15.44L20.30 15.50C20.30 15.67 20.43 15.79 20.57 15.79L22.26 15.79C22.37 15.79 22.48 15.71 22.51 15.60C22.51 15.58 22.53 15.57 22.53 15.57L23.14 13.06L25.54 13.06L26.15 15.55L26.17 15.60C26.21 15.71 26.31 15.79 26.42 15.79L28.11 15.79C28.27 15.79 28.38 15.67 28.38 15.50L28.38 15.47L28.36 15.40L27.78 13.06L28.15 13.06C28.31 13.06 28.43 12.95 28.43 12.80ZM23.69 10.89L24.35 8.30L24.99 10.89ZM38.39 15.37L36.16 11.42L35.85 10.89L35.78 10.77C37.81 10.32 38.86 8.82 38.86 7.35C38.86 6.38 38.42 5.46 37.65 4.82C36.86 4.14 35.76 3.79 34.48 3.79L30.39 3.79C30.24 3.79 30.11 3.92 30.11 4.06L30.11 5.17L30.25 5.42L30.25 5.43L32.12 8.71L30.11 8.71L30.11 15.54C30.11 15.69 30.24 15.82 30.39 15.82L32.03 15.82C32.17 15.82 32.30 15.69 32.30 15.54L32.30 10.89L33.35 10.89L33.64 11.42L36.04 15.65L36.06 15.69C36.11 15.76 36.19 15.82 36.29 15.82L38.16 15.82C38.32 15.82 38.43 15.69 38.43 15.53C38.43 15.48 38.43 15.44 38.40 15.40ZM34.33 8.19L33.08 5.98L34.48 5.98C35.99 5.98 36.67 6.69 36.67 7.35C36.67 7.91 36.16 8.53 35.03 8.68C34.90 8.69 34.76 8.71 34.62 8.71ZM47.98 5.68C47.98 5.84 47.82 5.96 47.64 5.96L44.97 5.96L44.97 15.47C44.97 15.65 44.84 15.81 44.70 15.81L43.05 15.81C42.91 15.81 42.78 15.65 42.78 15.47L42.78 5.96L40.05 5.96C39.90 5.96 39.77 5.84 39.77 5.68L39.77 4.05C39.77 3.89 39.90 3.78 40.05 3.78L47.64 3.78C47.82 3.78 47.98 3.89 47.98 4.05ZM63.53 12.28C63.53 12.38 63.52 13.22 62.99 14.07C62.50 14.88 61.49 15.83 59.43 15.83C57.81 15.83 56.53 15.15 55.85 13.93C55.52 13.34 55.40 12.77 55.36 12.40C55.36 12.38 55.34 12.35 55.34 12.32C55.34 12.18 55.45 12.05 55.59 12.04L57.32 12.04C57.43 12.05 57.51 12.12 57.54 12.24L57.54 12.25C57.54 12.26 57.55 12.28 57.55 12.29C57.58 12.46 57.65 12.70 57.79 12.91C58.09 13.40 58.63 13.65 59.43 13.65C60.28 13.65 60.83 13.41 61.12 12.94C61.32 12.61 61.35 12.26 61.35 12.26C61.35 11.87 61.25 11.41 60.52 11.12C59.99 10.89 59.43 10.88 59.43 10.88C59.33 10.88 58.44 10.86 57.51 10.50C56.10 9.93 55.33 8.81 55.33 7.34C55.33 7.20 55.36 5.89 56.38 4.87C57.11 4.13 58.14 3.75 59.43 3.75C60.26 3.75 61.45 3.93 62.36 4.86C63.24 5.75 63.46 6.89 63.52 7.45L63.52 7.48C63.52 7.64 63.41 7.77 63.25 7.77L61.56 7.77C61.45 7.76 61.35 7.66 61.32 7.55L61.32 7.50C61.28 7.31 61.21 7.03 61.07 6.75C60.87 6.40 60.49 5.94 59.43 5.94C58.74 5.94 58.24 6.09 57.92 6.41C57.54 6.79 57.51 7.34 57.51 7.34C57.51 7.73 57.61 8.18 58.34 8.47C58.87 8.68 59.43 8.69 59.43 8.69C59.53 8.69 60.42 8.71 61.35 9.09C62.76 9.67 63.53 10.81 63.53 12.28ZM72.37 5.68C72.37 5.84 72.21 5.96 72.03 5.96L69.36 5.96L69.36 15.47C69.36 15.65 69.23 15.81 69.09 15.81L67.44 15.81C67.30 15.81 67.17 15.65 67.17 15.47L67.17 5.96L64.44 5.96C64.29 5.96 64.16 5.84 64.16 5.68L64.16 4.05C64.16 3.89 64.29 3.78 64.44 3.78L72.03 3.78C72.21 3.78 72.37 3.89 72.37 4.05ZM80.57 11.16C80.57 11.00 80.44 10.89 80.29 10.89L79.37 10.89L77.66 4.05L77.64 3.98C77.60 3.88 77.50 3.81 77.39 3.81L75.56 3.81C75.45 3.81 75.35 3.88 75.31 3.98L75.29 4.06L72.45 15.41C72.45 15.43 72.45 15.44 72.44 15.44L72.44 15.50C72.44 15.67 72.56 15.79 72.70 15.79L74.40 15.79C74.51 15.79 74.62 15.71 74.65 15.60C74.65 15.58 74.66 15.57 74.66 15.57L75.28 13.06L77.67 13.06L78.29 15.55L78.30 15.60C78.34 15.71 78.44 15.79 78.55 15.79L80.25 15.79C80.40 15.79 80.51 15.67 80.51 15.50L80.51 15.47L80.50 15.40L79.91 13.06L80.29 13.06C80.44 13.06 80.57 12.95 80.57 12.80ZM75.82 10.89L76.48 8.30L77.13 10.89ZM90.40 4.06C90.40 4.10 90.40 4.13 90.38 4.17L90.36 4.21L87.32 10.05L86.86 10.96L84.42 15.62L84.41 15.67C84.41 15.68 84.41 15.68 84.39 15.68C84.35 15.75 84.27 15.81 84.17 15.81L82.32 15.81C82.17 15.81 82.05 15.68 82.05 15.51C82.05 15.48 82.05 15.46 82.07 15.43L82.11 15.34L84.94 9.91L82.07 4.20C82.05 4.14 82.04 4.10 82.04 4.06C82.04 4.03 82.04 3.99 82.05 3.96L82.10 3.88C82.15 3.81 82.22 3.77 82.32 3.77L84.14 3.77C84.24 3.77 84.34 3.82 84.38 3.91L86.18 7.52L88.03 3.95C88.05 3.93 88.05 3.92 88.05 3.92L88.07 3.88C88.12 3.81 88.20 3.77 88.28 3.77L90.13 3.77C90.29 3.77 90.40 3.91 90.40 4.06ZM98.88 12.28C98.88 12.38 98.87 13.22 98.34 14.07C97.85 14.88 96.84 15.83 94.78 15.83C93.16 15.83 91.88 15.15 91.20 13.93C90.87 13.34 90.75 12.77 90.71 12.40C90.71 12.38 90.69 12.35 90.69 12.32C90.69 12.18 90.80 12.05 90.94 12.04L92.67 12.04C92.78 12.05 92.86 12.12 92.89 12.24L92.89 12.25C92.89 12.26 92.90 12.28 92.90 12.29C92.93 12.46 93.00 12.70 93.14 12.91C93.44 13.40 93.98 13.65 94.78 13.65C95.63 13.65 96.18 13.41 96.47 12.94C96.67 12.61 96.70 12.26 96.70 12.26C96.70 11.87 96.60 11.41 95.87 11.12C95.34 10.89 94.78 10.88 94.78 10.88C94.68 10.88 93.79 10.86 92.86 10.50C91.45 9.93 90.68 8.81 90.68 7.34C90.68 7.20 90.71 5.89 91.73 4.87C92.46 4.13 93.49 3.75 94.78 3.75C95.61 3.75 96.80 3.93 97.71 4.86C98.59 5.75 98.81 6.89 98.87 7.45L98.87 7.48C98.87 7.64 98.76 7.77 98.60 7.77L96.91 7.77C96.80 7.76 96.70 7.66 96.67 7.55L96.67 7.50C96.63 7.31 96.56 7.03 96.42 6.75C96.22 6.40 95.84 5.94 94.78 5.94C94.09 5.94 93.59 6.09 93.27 6.41C92.89 6.79 92.86 7.34 92.86 7.34C92.86 7.73 92.96 8.18 93.69 8.47C94.22 8.68 94.78 8.69 94.78 8.69C94.88 8.69 95.77 8.71 96.70 9.09C98.11 9.67 98.88 10.81 98.88 12.28Z"></path></g><!----><!----></svg>