<?xml version="1.0" standalone="no"?>
<!DOCTYPE svg PUBLIC "-//W3C//DTD SVG 20010904//EN"
 "http://www.w3.org/TR/2001/REC-SVG-20010904/DTD/svg10.dtd">
<svg version="1.0" xmlns="http://www.w3.org/2000/svg"
 width="1024.000000pt" height="1024.000000pt" viewBox="0 0 1024.000000 1024.000000"
 preserveAspectRatio="xMidYMid meet">

<g transform="translate(0.000000,1024.000000) scale(0.100000,-0.100000)"
fill="#000000" stroke="none">
<path d="M1108 5746 c-158 -46 -247 -174 -236 -340 9 -137 64 -203 264 -322
170 -101 204 -134 204 -204 0 -61 -32 -103 -90 -118 -86 -22 -180 37 -180 113
l0 35 -111 0 -112 0 5 -63 c9 -112 75 -204 180 -253 58 -26 73 -29 173 -29 99
0 116 3 165 27 80 40 122 78 155 144 27 54 30 68 30 159 0 91 -2 104 -27 147
-39 65 -104 119 -232 191 -60 34 -132 83 -158 108 -45 43 -48 48 -48 97 0 73
35 113 106 119 85 9 144 -39 144 -117 l0 -30 110 0 110 0 0 43 c0 123 -70 231
-180 280 -58 25 -205 32 -272 13z"/>
<path d="M5765 5747 c-164 -55 -244 -170 -232 -331 10 -137 73 -216 252 -321
163 -94 189 -112 208 -143 20 -35 22 -97 4 -131 -28 -55 -138 -79 -198 -44
-32 19 -59 68 -59 107 l0 27 -112 -3 -113 -3 1 -40 c1 -73 14 -113 53 -165 76
-101 180 -145 326 -138 199 9 320 118 333 299 12 178 -51 262 -298 398 -52 28
-104 60 -115 69 -73 61 -87 137 -37 193 24 27 37 33 83 36 32 2 64 -1 79 -9
33 -18 70 -75 70 -109 l0 -29 111 0 112 0 -6 58 c-14 126 -63 204 -161 252
-59 29 -78 33 -164 37 -63 2 -111 -2 -137 -10z"/>
<path d="M8809 5747 c-61 -17 -131 -59 -164 -99 -50 -60 -68 -115 -69 -208 0
-161 48 -223 286 -364 81 -47 156 -98 167 -112 48 -60 33 -145 -31 -184 -38
-23 -120 -26 -156 -6 -33 18 -62 66 -62 104 l0 32 -116 0 -117 0 7 -61 c12
-118 76 -207 185 -257 50 -24 68 -27 171 -27 103 0 121 3 170 26 77 36 124 80
157 147 25 51 28 68 28 157 0 92 -2 104 -30 154 -36 65 -78 102 -190 167 -209
120 -255 162 -255 233 0 67 53 111 132 111 68 0 110 -35 129 -107 l11 -43 104
0 104 0 0 37 c0 59 -29 144 -65 195 -52 72 -138 110 -258 114 -56 3 -110 -1
-138 -9z"/>
<path d="M1700 5160 l0 -580 95 0 95 0 2 405 3 405 115 -403 116 -402 45 -3
46 -3 11 43 c20 79 221 751 227 756 3 3 5 -175 5 -396 l0 -402 105 0 105 0 0
580 0 581 -141 -3 -142 -3 -52 -170 c-120 -390 -145 -474 -145 -489 0 -9 -4
-16 -10 -16 -5 0 -10 6 -10 13 0 8 -20 79 -43 158 -24 79 -68 226 -98 327
l-54 182 -137 0 -138 0 0 -580z"/>
<path d="M3095 5728 c-5 -17 -30 -108 -49 -178 -40 -152 -134 -501 -192 -711
-35 -130 -64 -242 -64 -248 0 -7 34 -11 104 -11 91 0 105 2 109 18 3 9 18 70
33 135 l28 117 151 0 151 0 34 -135 35 -135 112 0 112 0 -15 49 c-22 77 -178
633 -247 883 l-62 228 -118 0 c-85 0 -119 -3 -122 -12z m200 -680 c-29 -9
-173 -9 -179 0 -3 4 18 97 47 206 l51 198 51 -198 c50 -194 51 -199 30 -206z"/>
<path d="M3746 5691 c-4 -28 -6 -290 -5 -581 l1 -531 104 3 105 3 0 233 0 232
45 0 c42 0 47 -3 57 -31 7 -17 51 -122 98 -233 l86 -201 112 -3 c82 -2 111 1
111 9 0 7 -20 58 -44 113 -25 56 -72 163 -105 240 l-60 138 53 49 c90 83 129
200 107 330 -20 125 -78 206 -180 253 -41 19 -68 21 -262 24 l-216 4 -7 -51z
m398 -182 c77 -67 64 -218 -22 -263 -15 -8 -59 -16 -97 -18 l-70 -3 -3 158 -3
157 80 0 c75 0 83 -2 115 -31z"/>
<path d="M4520 5640 l0 -100 115 0 115 0 0 -480 0 -480 105 0 105 0 0 480 0
480 110 0 110 0 0 100 0 100 -330 0 -330 0 0 -100z"/>
<path d="M6310 5640 l0 -100 120 0 120 0 0 -480 0 -480 105 0 105 0 0 480 0
480 120 0 120 0 0 100 0 100 -345 0 -345 0 0 -100z"/>
<path d="M7257 5733 c-3 -5 -46 -161 -97 -348 -152 -562 -209 -772 -216 -789
-5 -14 6 -16 104 -16 l110 0 33 135 33 135 150 -2 149 -3 35 -132 35 -133 109
0 c100 0 109 2 104 18 -17 54 -196 701 -247 892 -34 124 -62 231 -65 238 -4
13 -229 18 -237 5z m123 -310 c0 -9 21 -95 46 -191 25 -95 43 -176 39 -180
-11 -11 -176 -15 -186 -5 -10 10 81 392 94 393 4 0 7 -8 7 -17z"/>
<path d="M7720 5735 c0 -8 261 -607 286 -657 23 -46 24 -55 24 -273 l0 -225
100 0 100 0 0 227 0 227 145 337 c80 185 148 344 151 353 6 15 -5 16 -107 14
l-114 -3 -82 -215 c-46 -118 -83 -220 -83 -227 0 -40 -24 9 -93 190 -42 111
-81 214 -87 230 l-10 27 -115 0 c-63 0 -115 -2 -115 -5z"/>
</g>
</svg>
