<?xml version="1.0" encoding="UTF-8"?>
<svg version="1.1" xmlns="http://www.w3.org/2000/svg" width="661" height="331">
<path d="M0 0 C218.13 0 436.26 0 661 0 C661 109.23 661 218.46 661 331 C442.87 331 224.74 331 0 331 C0 221.77 0 112.54 0 0 Z " fill="#FDFDFD" transform="translate(0,0)"/>
<path d="M0 0 C3.11072983 1.64490537 5.97871764 3.56836235 8.875 5.5625 C10.63842853 6.74352404 12.40279831 7.92314353 14.16796875 9.1015625 C15.10431152 9.73094727 16.0406543 10.36033203 17.00537109 11.00878906 C22.34964743 14.56234506 27.77279992 17.99262078 33.1875 21.4375 C40.17363582 25.88800357 47.13015631 30.37151974 54 35 C60.09024073 31.84415446 65.94263348 28.47046619 71.625 24.625 C78.18420149 20.19553521 84.78452576 15.83204915 91.43133545 11.53509521 C93.10196764 10.45242634 94.76709427 9.36127728 96.43212891 8.27001953 C97.46772949 7.60212402 98.50333008 6.93422852 99.5703125 6.24609375 C100.49602051 5.64466553 101.42172852 5.0432373 102.37548828 4.42358398 C105.04222443 2.97709668 106.98029501 2.23000513 110 2 C111.87768555 2.69335938 111.87768555 2.69335938 113.63671875 3.84375 C114.2908374 4.26197021 114.94495605 4.68019043 115.61889648 5.11108398 C116.30153564 5.56942627 116.9841748 6.02776855 117.6875 6.5 C118.76076538 7.1962146 118.76076538 7.1962146 119.85571289 7.90649414 C124.41250781 10.88100422 128.88356675 13.97137002 133.3125 17.1328125 C136.63634928 19.44211476 140.0314308 21.62700277 143.4375 23.8125 C150.43620075 28.30580759 157.36305945 32.9013415 164.27252197 37.53030396 C173.80529643 43.91608063 183.38286457 50.21299858 193.0625 56.375 C202.25380962 62.22666311 211.36299778 68.18018739 220.40576172 74.25830078 C225.31340455 77.55315529 230.22952945 80.83530764 235.14630127 84.11651611 C236.88131212 85.27498334 238.61526341 86.4350227 240.34912109 87.59521484 C245.30750031 90.90593161 250.2745152 94.19265321 255.31640625 97.375 C261.90642419 101.54348904 268.36862862 105.89964756 274.84432983 110.24249268 C289.15811 119.84948846 289.15811 119.84948846 303.6875 129.125 C313.28813733 135.09248534 322.65713304 141.40143426 332.04907227 147.68969727 C339.6987196 152.80983472 347.37008748 157.8887489 355.12939453 162.84204102 C362.01355082 167.24667933 362.01355082 167.24667933 364 169 C364.46333792 172.17717433 364.49286352 174.10124887 362.9375 176.9375 C360.53540598 178.25477737 358.85939962 178.14689365 356.19311523 177.70336914 C351.15827375 176.08861034 346.89273969 172.70296135 342.5625 169.75 C341.43407755 168.9940301 340.3047407 168.23942357 339.17456055 167.48608398 C336.74247158 165.86349069 334.3145007 164.23496287 331.88867188 162.60302734 C327.84595508 159.88959715 323.77739907 157.21652183 319.703125 154.55078125 C319.00464951 154.0937381 318.30617401 153.63669495 317.58653259 153.165802 C316.18276792 152.24756387 314.77891409 151.32946202 313.37496948 150.41149902 C304.98126229 144.92142855 296.60166581 139.41129626 288.26171875 133.83984375 C282.03685431 129.6813802 275.77884672 125.57659773 269.5 121.5 C263.14492996 117.36527649 256.7975777 113.22184478 250.5 109 C244.80097157 105.18217394 239.06325704 101.42689825 233.3125 97.6875 C221.88687617 90.25348896 210.50464816 82.75414046 199.125 75.25 C198.18405487 74.62954803 197.24310974 74.00909607 196.27365112 73.36984253 C192.41276887 70.82394571 188.55197325 68.2779176 184.69129944 65.73170471 C178.11264873 61.39292867 171.53329823 57.05521665 164.953125 52.71875 C164.06577667 52.13383286 163.17842834 51.54891571 162.26419067 50.9462738 C157.92913472 48.08931632 153.59228269 45.23515941 149.25146484 42.38696289 C135.53472851 33.38294598 135.53472851 33.38294598 128.77420044 28.7829895 C126.329026 27.12011073 123.87580753 25.46934662 121.42169189 23.81970215 C119.80388782 22.7239971 118.19928059 21.60888476 116.59521484 20.49316406 C115.17909912 19.54328613 115.17909912 19.54328613 113.734375 18.57421875 C112.93225586 18.02338623 112.13013672 17.47255371 111.30371094 16.9050293 C108.99638246 15.73732152 108.99638246 15.73732152 106.48876953 16.6574707 C104.04749289 17.97438068 101.74346728 19.35298067 99.4453125 20.90625 C98.1620105 21.76839111 98.1620105 21.76839111 96.8527832 22.64794922 C95.95261475 23.25912598 95.05244629 23.87030273 94.125 24.5 C93.19840576 25.12277832 92.27181152 25.74555664 91.31713867 26.38720703 C87.73513762 28.79540486 84.15995291 31.21355146 80.58740234 33.63574219 C79.14841152 34.61101972 77.7083837 35.58476981 76.26708984 36.55664062 C74.98974755 37.4182005 73.71519763 38.28391879 72.44384766 39.15429688 C68.22481497 42 68.22481497 42 66 42 C66 42.66 66 43.32 66 44 C66.64453125 44.21398438 67.2890625 44.42796875 67.953125 44.6484375 C72.19287043 46.52914509 75.89276108 49.06366537 79.75 51.625 C81.55408268 52.81081651 83.35879941 53.99566879 85.1640625 55.1796875 C86.11571289 55.80456055 87.06736328 56.42943359 88.04785156 57.07324219 C93.04897802 60.33729197 98.0888386 63.54038669 103.125 66.75 C115.09149494 74.39028872 126.97667395 82.15142184 138.84960938 89.93603516 C143.85352618 93.21432969 148.86385714 96.48276534 153.875 99.75 C154.81569336 100.36335205 155.75638672 100.9767041 156.72558594 101.60864258 C166.14443376 107.74826919 175.56929802 113.87859878 185 120 C186.04534912 120.67893311 186.04534912 120.67893311 187.11181641 121.37158203 C194.98035051 126.48055337 202.86825682 131.55791391 210.77587891 136.60620117 C220.82135016 143.02056425 230.83810233 149.47583128 240.8125 156 C241.85462646 156.68143066 242.89675293 157.36286133 243.97045898 158.06494141 C245.97728691 159.37968767 247.98025818 160.70034279 249.97900391 162.02734375 C252.09431335 163.40860287 254.23455891 164.75207331 256.39208984 166.06640625 C257.48344238 166.74574219 258.57479492 167.42507812 259.69921875 168.125 C260.69139404 168.72570312 261.68356934 169.32640625 262.70581055 169.9453125 C265 172 265 172 265.95629883 175.0546875 C266 178 266 178 264 181 C255.92971094 182.49175263 250.91203449 178.34259913 244.4375 173.9375 C242.76395991 172.8319195 241.09041267 171.7263495 239.41630554 170.62162781 C237.70657997 169.48930157 236.00255834 168.34883304 234.29980469 167.20605469 C230.34017856 164.55888232 226.34874625 161.96339738 222.35229492 159.37231445 C217.55877675 156.26263123 212.78062142 153.12945819 208 150 C204.10390751 147.45069049 200.20764516 144.90164085 196.31115723 142.35293579 C195.1884884 141.61858456 194.06584835 140.88418933 192.9432373 140.14974976 C185.7507116 135.44458433 178.54910702 130.75422482 171.32739258 126.09399414 C167.4189705 123.57030806 163.51869979 121.03463513 159.625 118.48828125 C150.20380456 112.32737537 140.76645694 106.20041169 131.25 100.1875 C122.78746044 94.83694644 114.44116225 89.32384877 106.125 83.75 C98.50771483 78.64559971 90.87988587 73.5790853 83.07495117 68.76464844 C69.37865347 60.31569199 55.81360777 51.6272264 42.45751953 42.6496582 C36.60903997 38.72151391 30.708143 34.8751471 24.78564453 31.05957031 C20.30029622 28.16662796 15.85463495 25.23021889 11.453125 22.2109375 C10.55037842 21.60032471 9.64763184 20.98971191 8.7175293 20.3605957 C6.97978371 19.18372249 5.25157114 17.99261789 3.53442383 16.78588867 C-0.68825012 13.72184719 -0.68825012 13.72184719 -5.625 13.3828125 C-6.40875 13.91648437 -7.1925 14.45015625 -8 15 C-9.62615234 15.95326172 -9.62615234 15.95326172 -11.28515625 16.92578125 C-12.54720464 17.71669191 -13.80613369 18.51259407 -15.0625 19.3125 C-15.752229 19.74763916 -16.44195801 20.18277832 -17.15258789 20.63110352 C-25.33933247 25.81473894 -33.45003427 31.11682197 -41.56445312 36.41259766 C-45.26649748 38.82545776 -48.97649859 41.22594699 -52.6875 43.625 C-53.72185181 44.29390259 -53.72185181 44.29390259 -54.77709961 44.97631836 C-56.15913539 45.87002293 -57.54121525 46.76365935 -58.92333984 47.65722656 C-62.44948316 49.93723929 -65.97468809 52.21870206 -69.5 54.5 C-70.9166623 55.41667341 -72.33332897 56.33334008 -73.75 57.25 C-74.45125 57.70375 -75.1525 58.1575 -75.875 58.625 C-82.25 62.75 -82.25 62.75 -84.37426758 64.12451172 C-85.79339311 65.042779 -87.21250114 65.96107335 -88.6315918 66.87939453 C-92.13549597 69.14679201 -95.63968595 71.41374501 -99.14453125 73.6796875 C-106.7693825 78.61004244 -114.38807908 83.54970195 -122 88.5 C-130.30001525 93.89778982 -138.60884956 99.28176625 -146.92333984 104.65722656 C-150.44948316 106.93723929 -153.97468809 109.21870206 -157.5 111.5 C-158.9166623 112.41667341 -160.33332897 113.33334008 -161.75 114.25 C-162.801875 114.930625 -162.801875 114.930625 -163.875 115.625 C-183 128 -202.125 140.375 -221.25 152.75 C-222.30223755 153.4308667 -222.30223755 153.4308667 -223.37573242 154.12548828 C-224.78994021 155.04055435 -226.20416542 155.95559349 -227.6184082 156.87060547 C-231.9229363 159.65568423 -236.22717851 162.44120145 -240.52978516 165.22924805 C-241.95646601 166.15211911 -243.38450619 167.0728925 -244.81396484 167.99145508 C-248.21882261 170.18165185 -251.5976943 172.39729386 -254.93359375 174.69140625 C-255.5572583 175.11276855 -256.18092285 175.53413086 -256.82348633 175.96826172 C-258.50678344 177.10749275 -260.17959902 178.26216833 -261.8515625 179.41796875 C-265.55612926 181.27944461 -267.90630322 181.54020938 -272 181 C-274 178 -274 178 -274.5625 175.6875 C-273.52806426 170.74519591 -268.4499573 167.99159356 -264.45141602 165.25708008 C-261.48494719 163.33013199 -258.49732264 161.44108734 -255.5 159.5625 C-253.25721898 158.14285157 -251.0150462 156.7222765 -248.7734375 155.30078125 C-248.20688446 154.94229095 -247.64033142 154.58380066 -247.05661011 154.21444702 C-241.37563115 150.61601715 -235.74845255 146.93740005 -230.125 143.25 C-222.43357283 138.21382149 -214.70754591 133.24092905 -206.90283203 128.38183594 C-205.50911637 127.50999045 -204.12692701 126.61944329 -202.75698853 125.71069336 C-200.62136832 124.38555498 -198.54321107 123.25607948 -196.30426025 122.1350708 C-189.05311325 118.38550832 -189.05311325 118.38550832 -184.15052795 112.14322853 C-182.86553242 106.92327129 -183.20499057 101.61309344 -183.421875 96.28515625 C-183.43505569 94.58031615 -183.44114121 92.8754079 -183.44049072 91.17051697 C-183.45567098 86.70890999 -183.55767585 82.25370134 -183.68133545 77.79394531 C-183.83979833 71.49036248 -183.87813451 65.18468286 -183.93096924 58.87950134 C-183.95941289 55.52605945 -184.02038727 52.17566285 -184.10760498 48.82325745 C-184.13660339 47.29892135 -184.16551829 45.77458366 -184.19433594 44.25024414 C-184.2193367 43.55673355 -184.24433746 42.86322296 -184.27009583 42.1486969 C-184.30955753 39.39581348 -184.27675938 37.45025742 -182.81498718 35.07211304 C-180.36313511 33.62380387 -178.61075456 33.61228922 -175.76586914 33.59594727 C-174.16389427 33.57692101 -174.16389427 33.57692101 -172.52955627 33.55751038 C-171.37640427 33.56044601 -170.22325226 33.56338165 -169.03515625 33.56640625 C-167.25787392 33.55854347 -167.25787392 33.55854347 -165.44468689 33.55052185 C-162.93717228 33.54409394 -160.42962756 33.54544852 -157.92211914 33.55395508 C-154.08099748 33.56245905 -150.24136504 33.53372114 -146.40039062 33.50195312 C-143.96614628 33.50034096 -141.5318993 33.50091894 -139.09765625 33.50390625 C-137.94652847 33.49267227 -136.7954007 33.48143829 -135.60939026 33.46986389 C-134.53825485 33.47924484 -133.46711945 33.48862579 -132.36352539 33.49829102 C-130.95146568 33.49854027 -130.95146568 33.49854027 -129.51087952 33.49879456 C-126.21879622 34.15593882 -125.03188323 35.37139399 -123 38 C-122.58213298 40.80696003 -122.39525687 43.23851941 -122.390625 46.046875 C-122.37408875 46.81807678 -122.35755249 47.58927856 -122.34051514 48.3838501 C-122.29205407 50.83931454 -122.27066963 53.29415984 -122.25 55.75 C-122.22183854 57.41799987 -122.19191086 59.08597092 -122.16015625 60.75390625 C-122.08629628 64.8358865 -122.03671064 68.91752345 -122 73 C-112.94290753 67.54292023 -103.93946044 62.04789055 -95.17944336 56.12353516 C-89.02128629 51.97523726 -82.76135105 47.99025808 -76.5 44 C-69.73017408 39.68389913 -62.96967638 35.36331397 -56.3125 30.875 C-49.45790689 26.25613089 -42.49200042 21.81835272 -35.49707031 17.4152832 C-30.73862054 14.41308464 -26.03058886 11.3625399 -21.390625 8.1796875 C-20.49432373 7.57229736 -19.59802246 6.96490723 -18.67456055 6.33911133 C-16.97491812 5.18308759 -15.28556355 4.01174164 -13.60864258 2.82299805 C-8.74045678 -0.46457473 -5.8856014 -2.01679063 0 0 Z " fill="#050505" transform="translate(289,15)"/>
<path d="M0 0 C4.29 0 8.58 0 13 0 C12.34 0.66 11.68 1.32 11 2 C11.3591835 6.69635643 12.94638816 10.83246371 14.72265625 15.1484375 C14.98759384 15.80582916 15.25253143 16.46322083 15.52549744 17.14053345 C16.36548137 19.22104354 17.21383323 21.29801877 18.0625 23.375 C18.63662592 24.79274283 19.21019931 26.21070954 19.78320312 27.62890625 C21.18242128 31.08854987 22.58916034 34.54507671 24 38 C24.99 37.34 25.98 36.68 27 36 C26.65835815 37.46312622 26.65835815 37.46312622 26.30981445 38.95581055 C25.63871953 43.7409341 27.2170244 47.3407099 29.04296875 51.70703125 C29.36783768 52.51363693 29.6927066 53.32024261 30.02742004 54.15129089 C30.71478855 55.84623305 31.41032054 57.53788497 32.11352539 59.22631836 C33.18786017 61.81336732 34.22921865 64.41200588 35.26757812 67.01367188 C35.9407841 68.66224542 36.61585082 70.3100606 37.29296875 71.95703125 C37.60356735 72.73407913 37.91416595 73.51112701 38.23417664 74.3117218 C40.05678784 78.62741308 40.64379377 79.82189689 45 82 C40.71 82 36.42 82 32 82 C32.99 81.67 33.98 81.34 35 81 C33.10349624 73.64879017 30.33852949 66.75844362 27.33764648 59.80297852 C25 54.30966575 25 54.30966575 25 51 C22.40911271 51.99133138 21.21908895 52.61923478 19.81494141 55.05957031 C19.49702637 55.89069336 19.17911133 56.72181641 18.8515625 57.578125 C18.48546875 58.49207031 18.119375 59.40601563 17.7421875 60.34765625 C17.00364209 62.26632493 16.2666357 64.1855868 15.53125 66.10546875 C12.77685396 72.97219733 10.04845109 78.10498034 3.0625 81.375 C-2.38976752 82.48770766 -6.27306469 82.70927799 -11.1875 79.9375 C-15.12337689 77.20149238 -17.46873214 74.55535225 -19 70 C-20.00364439 62.3528814 -18.07405125 56.44060047 -14.984375 49.53125 C-14.57213684 48.57029419 -14.15989868 47.60933838 -13.73516846 46.6192627 C-12.42359598 43.57190011 -11.08758793 40.53602027 -9.75 37.5 C-8.86680118 35.4629708 -7.98527538 33.42521536 -7.10546875 31.38671875 C-5.85957998 28.50095371 -4.61156918 25.61638958 -3.35003662 22.73742676 C-2.22250278 20.16281846 -1.10865136 17.58278948 0 15 C0.39844116 14.08613525 0.79688232 13.17227051 1.20739746 12.23071289 C1.5833606 11.34053467 1.95932373 10.45035645 2.34667969 9.53320312 C2.68850281 8.73434692 3.03032593 7.93549072 3.38250732 7.11242676 C4.26386872 4.8421052 4.26386872 4.8421052 3 2 C2.01 1.34 1.02 0.68 0 0 Z " fill="#F0F0F0" transform="translate(111,218)"/>
<path d="M0 0 C12.21 0 24.42 0 37 0 C37.495 9.095625 37.495 9.095625 38 18.375 C38.14566406 20.26782715 38.29132813 22.1606543 38.44140625 24.11083984 C38.96248242 35.67163103 38.96248242 35.67163103 35.5541687 39.71539307 C31.76111962 42.85538497 27.48210118 44.96720164 23.03240967 47.02313232 C20.21481955 48.37739311 17.68025473 50.0654403 15.09765625 51.8203125 C13.82825195 52.65175781 13.82825195 52.65175781 12.53320312 53.5 C10.82723291 54.62202942 9.12151974 55.74444973 7.41601562 56.8671875 C6.58908203 57.40859375 5.76214844 57.95 4.91015625 58.5078125 C4.17933838 58.98879395 3.44852051 59.46977539 2.69555664 59.96533203 C1 61 1 61 0 61 C0 40.87 0 20.74 0 0 Z " fill="#FCFCFC" transform="translate(117,60)"/>
<path d="M0 0 C3.96 0 7.92 0 12 0 C11.34 0.66 10.68 1.32 10 2 C10.20796753 8.34300967 11.76898236 13.83890169 13.703125 19.8515625 C15.38982586 25.15529966 16.87579692 30.51585962 18.375 35.875 C18.6745459 36.94419678 18.9740918 38.01339355 19.28271484 39.11499023 C21.61908018 47.51102972 23.83893688 55.9347796 25.95849609 64.38818359 C27.9995059 74.45323451 27.9995059 74.45323451 34 82 C30.04 82 26.08 82 22 82 C22.99 81.67 23.98 81.34 25 81 C22.46863034 70.24658003 22.46863034 70.24658003 19.25 59.6875 C18 56 18 56 18 53 C17.38125 53.495 16.7625 53.99 16.125 54.5 C14 56 14 56 12 56 C11.4740625 57.794375 11.4740625 57.794375 10.9375 59.625 C9.46648747 64.04507593 7.56484746 68.2063559 5.5 72.375 C5.20343506 72.98166504 4.90687012 73.58833008 4.60131836 74.21337891 C1.61948492 80.11765656 1.61948492 80.11765656 -1 82 C-5.60159792 83.03406695 -9.09244081 82.5741701 -13.0625 80.0625 C-16.17631642 75.14066115 -15.49771343 70.37997258 -14.34625244 64.87390137 C-13.40895731 61.21507044 -12.39551381 57.58249225 -11.3515625 53.953125 C-10.97426876 52.61059526 -10.59793263 51.26779606 -10.22250366 49.92474365 C-9.4375821 47.1256868 -8.64524869 44.3288848 -7.84667969 41.53369141 C-6.8257521 37.9600877 -5.81742179 34.38309309 -4.81383705 30.8045845 C-3.85125978 27.37379656 -2.88310828 23.94459058 -1.9140625 20.515625 C-1.73115284 19.86713844 -1.54824318 19.21865189 -1.3597908 18.55051422 C-0.83874878 16.70762364 -0.31326243 14.86599138 0.21240234 13.02441406 C0.50996429 11.97900452 0.80752625 10.93359497 1.11410522 9.85650635 C1.94757834 7.16903 2.91463034 4.59464019 4 2 C2.68 1.34 1.36 0.68 0 0 Z " fill="#F3F3F3" transform="translate(497,218)"/>
<path d="M0 0 C4.29 0 8.58 0 13 0 C12.34 0.66 11.68 1.32 11 2 C10.22504208 7.90669144 12.40344783 13.36624798 14.125 18.9375 C16.6476124 27.31642938 19.0226872 35.70894281 21.1875 44.1875 C22.99862891 51.25594189 24.89799685 58.24882562 27.13671875 65.1953125 C28.3092228 69.00462429 29.21710099 72.87056622 30.09375 76.7578125 C30.98982077 79.53077089 30.98982077 79.53077089 35 82 C30.71 82 26.42 82 22 82 C23.98 81.505 23.98 81.505 26 81 C25.07109767 77.47684158 24.1303304 73.95695439 23.1875 70.4375 C22.92646484 69.44685547 22.66542969 68.45621094 22.39648438 67.43554688 C20.95242344 62.06934512 19.352578 57.03720155 17 52 C12.91606114 57.9982852 9.91284216 64.27996071 7.03125 70.91967773 C4.98687512 75.46645402 2.91762589 78.75184183 -1 82 C-4.5 83.0625 -4.5 83.0625 -8 83 C-10.80189446 81.23358828 -12.51524911 79.96950178 -14 77 C-15.02428332 68.54938888 -12.63217187 60.84753502 -10.28125 52.8203125 C-9.89881325 51.47691962 -9.51769242 50.13315149 -9.13781738 48.78903198 C-8.14283526 45.27916789 -7.13325068 41.77369345 -6.1194458 38.26922607 C-4.49365553 32.64151517 -2.88852077 27.00790972 -1.28709412 21.37322617 C-0.72735347 19.41294297 -0.16014864 17.45493768 0.40808105 15.49710083 C0.74843384 14.308414 1.08878662 13.11972717 1.43945312 11.89501953 C1.7414563 10.85040558 2.04345947 9.80579163 2.35461426 8.72952271 C3.15340114 5.81868639 3.15340114 5.81868639 3 2 C2.01 1.34 1.02 0.68 0 0 Z " fill="#F5F5F5" transform="translate(211,218)"/>
<path d="M0 0 C3.64555558 -0.11755481 7.29061474 -0.18769812 10.9375 -0.25 C12.46987305 -0.30027344 12.46987305 -0.30027344 14.03320312 -0.3515625 C22.45728985 -0.45921856 28.49390293 1.13787994 35.0625 6.5 C38.36761638 10.99863063 37.76178517 16.73279966 37 22 C34.06591303 28.60169569 27.83576914 32.10948724 22 36 C25.29571566 55.2060671 35.4942743 80.59541944 51 93 C59.17080761 98.62068294 65.96537917 101.34466427 75.875 101.1875 C76.63941406 101.18685547 77.40382813 101.18621094 78.19140625 101.18554688 C83.20303519 101.14725769 88.03879323 100.70632215 93 100 C88.76788599 104.23211401 81.30437691 104.13925371 75.5625 104.3125 C62.63475797 104.00296251 50.92613006 98.30134349 42 89 C31.59474004 77.44077324 18 55.15091733 18 39 C14.4440429 40.92213897 12.00888805 42.45947555 10 46 C9.74355859 48.69199145 9.64953248 51.14305409 9.70703125 53.828125 C9.71127609 54.57713074 9.71552094 55.32613647 9.71989441 56.09783936 C9.73664254 58.48226375 9.77428603 60.86583253 9.8125 63.25 C9.82755191 64.86977943 9.84123943 66.48957215 9.85351562 68.109375 C9.8865332 72.07324466 9.93828754 76.03647743 10 80 C11.32 80.66 12.64 81.32 14 82 C9.38 82 4.76 82 0 82 C1.485 81.01 1.485 81.01 3 80 C3.31632698 77.45996616 3.43743016 75.15763719 3.43237305 72.61279297 C3.44766052 71.47118713 3.44766052 71.47118713 3.46325684 70.30651855 C3.49350794 67.78500117 3.50267096 65.26386288 3.51171875 62.7421875 C3.52855651 60.99625372 3.54670552 59.25033212 3.56611633 57.50442505 C3.61372076 52.9046001 3.64346236 48.30482456 3.66955566 43.70483398 C3.69930871 39.01275878 3.74585696 34.320854 3.79101562 29.62890625 C3.87716741 20.41935979 3.94445967 11.20977836 4 2 C2.68 1.34 1.36 0.68 0 0 Z " fill="#F7F7F7" transform="translate(252,218)"/>
<path d="M0 0 C12.87 0 25.74 0 39 0 C39 2.31 39 4.62 39 7 C37 4 37 4 37 2 C32.05 1.67 27.1 1.34 22 1 C22.06283021 11.26597058 22.13816381 21.53163795 22.23571491 31.79733849 C22.28050429 36.56376847 22.31974122 41.33011129 22.34643555 46.09667969 C22.37238345 50.69392209 22.41272457 55.29083055 22.46318626 59.88786697 C22.47991285 61.6445565 22.49139092 63.40130385 22.49761391 65.15806198 C22.50719249 67.61273224 22.53517469 70.06653692 22.56762695 72.52099609 C22.56547432 73.61827278 22.56547432 73.61827278 22.5632782 74.73771667 C22.5703035 76.96962683 22.5703035 76.96962683 23 80 C24.485 80.99 24.485 80.99 26 82 C21.71 82 17.42 82 13 82 C14.485 81.01 14.485 81.01 16 80 C16.31627816 77.43024449 16.43742379 75.09554398 16.43237305 72.52099609 C16.4425647 71.75017197 16.45275635 70.97934784 16.46325684 70.18516541 C16.49350935 67.63118335 16.5026712 65.07757556 16.51171875 62.5234375 C16.5285564 60.75508363 16.54670539 58.9867418 16.56611633 57.21841431 C16.61372193 52.55940512 16.64346278 47.9004447 16.66955566 43.24127197 C16.69930811 38.48887494 16.74585657 33.73664619 16.79101562 28.984375 C16.87716874 19.65633783 16.94446042 10.32826614 17 1 C12.38 1.33 7.76 1.66 3 2 C2.34 3.65 1.68 5.3 1 7 C0.67 7 0.34 7 0 7 C0 4.69 0 2.38 0 0 Z " fill="#000000" transform="translate(444,218)"/>
<path d="M0 0 C6.93 0 13.86 0 21 0 C21 0.33 21 0.66 21 1 C17.04 1 13.08 1 9 1 C9.03029297 2.18513184 9.06058594 3.37026367 9.09179688 4.59130859 C9.72690812 29.73260662 10.16581087 54.85031752 10 80 C11.32 80.66 12.64 81.32 14 82 C9.38 82 4.76 82 0 82 C1.485 81.01 1.485 81.01 3 80 C3.31632698 77.45996616 3.43743016 75.15763719 3.43237305 72.61279297 C3.44766052 71.47118713 3.44766052 71.47118713 3.46325684 70.30651855 C3.49350794 67.78500117 3.50267096 65.26386288 3.51171875 62.7421875 C3.52855651 60.99625372 3.54670552 59.25033212 3.56611633 57.50442505 C3.61372076 52.9046001 3.64346236 48.30482456 3.66955566 43.70483398 C3.69930871 39.01275878 3.74585696 34.320854 3.79101562 29.62890625 C3.87716741 20.41935979 3.94445967 11.20977836 4 2 C2.68 1.34 1.36 0.68 0 0 Z " fill="#1E1E1E" transform="translate(252,218)"/>
<path d="M0 0 C4.29 0 8.58 0 13 0 C12.34 0.66 11.68 1.32 11 2 C10.22504208 7.90669144 12.40344783 13.36624798 14.125 18.9375 C16.6476124 27.31642938 19.0226872 35.70894281 21.1875 44.1875 C22.99862891 51.25594189 24.89799685 58.24882562 27.13671875 65.1953125 C28.3092228 69.00462429 29.21710099 72.87056622 30.09375 76.7578125 C30.98982077 79.53077089 30.98982077 79.53077089 35 82 C30.71 82 26.42 82 22 82 C23.98 81.505 23.98 81.505 26 81 C25.07109767 77.47684158 24.1303304 73.95695439 23.1875 70.4375 C22.92646484 69.44685547 22.66542969 68.45621094 22.39648438 67.43554688 C20.95242344 62.06934512 19.352578 57.03720155 17 52 C16.01 52.66 15.02 53.32 14 54 C14.66 52.68 15.32 51.36 16 50 C16.66 50 17.32 50 18 50 C17.566875 48.91332031 17.13375 47.82664062 16.6875 46.70703125 C14.72436259 41.46854193 13.36804719 36.10624943 12 30.6875 C11.25409606 27.76798535 10.50638557 24.84897956 9.75390625 21.93115234 C9.23337547 19.90735295 8.72084841 17.88148401 8.21484375 15.85400391 C7.95832031 14.85675293 7.70179688 13.85950195 7.4375 12.83203125 C7.20933594 11.92815674 6.98117188 11.02428223 6.74609375 10.09301758 C6.20610433 7.81457822 6.20610433 7.81457822 4 7 C3.855625 6.195625 3.71125 5.39125 3.5625 4.5625 C3.23497283 1.65559342 3.23497283 1.65559342 0 0 Z " fill="#151515" transform="translate(211,218)"/>
<path d="M0 0 C4.29 0 8.58 0 13 0 C12.34 0.66 11.68 1.32 11 2 C11.3591835 6.69635643 12.94638816 10.83246371 14.72265625 15.1484375 C14.98759384 15.80582916 15.25253143 16.46322083 15.52549744 17.14053345 C16.36548137 19.22104354 17.21383323 21.29801877 18.0625 23.375 C18.63662592 24.79274283 19.21019931 26.21070954 19.78320312 27.62890625 C21.18242128 31.08854987 22.58916034 34.54507671 24 38 C24.99 37.34 25.98 36.68 27 36 C26.65835815 37.46312622 26.65835815 37.46312622 26.30981445 38.95581055 C25.63871953 43.7409341 27.2170244 47.3407099 29.04296875 51.70703125 C29.36783768 52.51363693 29.6927066 53.32024261 30.02742004 54.15129089 C30.71478855 55.84623305 31.41032054 57.53788497 32.11352539 59.22631836 C33.18786017 61.81336732 34.22921865 64.41200588 35.26757812 67.01367188 C35.9407841 68.66224542 36.61585082 70.3100606 37.29296875 71.95703125 C37.60356735 72.73407913 37.91416595 73.51112701 38.23417664 74.3117218 C40.05678784 78.62741308 40.64379377 79.82189689 45 82 C40.71 82 36.42 82 32 82 C32.99 81.67 33.98 81.34 35 81 C32.94400621 73.55838512 30.29150906 66.49231351 27.3125 59.375 C26.89677734 58.37082031 26.48105469 57.36664063 26.05273438 56.33203125 C25.03945904 53.88619424 24.02183204 51.4422715 23 49 C22.01 49.495 22.01 49.495 21 50 C21.05269043 49.15381104 21.10538086 48.30762207 21.15966797 47.43579102 C20.97508166 43.46379844 19.95368425 40.70155083 18.4453125 37.02734375 C18.18370331 36.38181046 17.92209412 35.73627716 17.65255737 35.07118225 C16.81974025 33.02249921 15.97270924 30.98005951 15.125 28.9375 C14.56284307 27.56224058 14.00163589 26.18659253 13.44140625 24.81054688 C12.40964778 22.27995759 11.3714115 19.75241599 10.32861328 17.22631836 C9.8901709 16.1616333 9.45172852 15.09694824 9 14 C8.61183105 13.09580322 8.22366211 12.19160645 7.82373047 11.26000977 C7 9 7 9 7 6 C6.34 6 5.68 6 5 6 C4.67 6.66 4.34 7.32 4 8 C4.0825 7.236875 4.165 6.47375 4.25 5.6875 C4.1675 4.800625 4.085 3.91375 4 3 C2.68 2.01 1.36 1.02 0 0 Z " fill="#161616" transform="translate(111,218)"/>
<path d="M0 0 C12.87 0 25.74 0 39 0 C39 2.31 39 4.62 39 7 C38.690625 6.360625 38.38125 5.72125 38.0625 5.0625 C37.1654837 3.06389179 37.1654837 3.06389179 36 2 C29.07 1.505 29.07 1.505 22 1 C22.33 27.07 22.66 53.14 23 80 C24.32 80.66 25.64 81.32 27 82 C22.38 82 17.76 82 13 82 C14.32 81.01 15.64 80.02 17 79 C17.41160847 76.3653403 17.56436746 74.13750918 17.54589844 71.49926758 C17.55623611 70.73805099 17.56657379 69.97683441 17.57722473 69.19255066 C17.60672394 66.67633008 17.60815335 64.16091138 17.609375 61.64453125 C17.62435192 59.900024 17.64107803 58.15553095 17.65948486 56.41105652 C17.70322579 51.81942098 17.7231723 47.22797672 17.73822021 42.63616943 C17.7577671 37.95069028 17.79973975 33.26541844 17.83984375 28.58007812 C17.91521907 19.38674751 17.96339362 10.19356683 18 1 C10.08 1.495 10.08 1.495 2 2 C1.67 3.65 1.34 5.3 1 7 C0.67 7 0.34 7 0 7 C0 4.69 0 2.38 0 0 Z " fill="#000000" transform="translate(294,218)"/>
<path d="M0 0 C3.96 0 7.92 0 12 0 C11.01 0.495 11.01 0.495 10 1 C11.2369118 6.28789014 12.73288621 11.22374468 14.73388672 16.28637695 C15.00085358 16.96547623 15.26782043 17.6445755 15.5428772 18.34425354 C16.41632714 20.56114463 17.29741656 22.77488723 18.1796875 24.98828125 C18.7951125 26.53903844 19.41043679 28.08983561 20.02566528 29.64067078 C21.31135415 32.8772785 22.60142829 36.11209979 23.89404297 39.34594727 C25.54892854 43.48846729 27.18778661 47.63713031 28.82285881 51.78750324 C30.08606757 54.98636323 31.36013333 58.18081511 32.63727188 61.37413597 C33.24641559 62.90237761 33.85160307 64.43220241 34.45272446 65.96361732 C35.29289611 68.10068825 36.14811255 70.23112194 37.00732422 72.3605957 C37.48982635 73.57334671 37.97232849 74.78609772 38.4694519 76.03559875 C39.93748076 79.40684246 39.93748076 79.40684246 44 82 C40.04 82 36.08 82 32 82 C32.66 81.67 33.32 81.34 34 81 C32.34462514 72.98261691 29.17600276 65.56051186 26.1171875 58 C25.53666596 56.5542999 24.95660529 55.10841465 24.37698364 53.66235352 C22.8592595 49.87943041 21.33533589 46.09903565 19.81005859 42.31915283 C18.25109308 38.45257238 16.69807139 34.58360645 15.14453125 30.71484375 C12.10213 23.14089669 9.05316793 15.56961323 6 8 C5.01 8.66 4.02 9.32 3 10 C3.33 7.69 3.66 5.38 4 3 C2.68 2.01 1.36 1.02 0 0 Z " fill="#141414" transform="translate(146,218)"/>
<path d="M0 0 C3.96 0 7.92 0 12 0 C11.34 0.66 10.68 1.32 10 2 C10.20796753 8.34300967 11.76898236 13.83890169 13.703125 19.8515625 C15.38982586 25.15529966 16.87579692 30.51585962 18.375 35.875 C18.6745459 36.94419678 18.9740918 38.01339355 19.28271484 39.11499023 C21.61908018 47.51102972 23.83893688 55.9347796 25.95849609 64.38818359 C27.9995059 74.45323451 27.9995059 74.45323451 34 82 C30.04 82 26.08 82 22 82 C23.485 81.505 23.485 81.505 25 81 C22.49241676 70.30117044 22.49241676 70.30117044 19.25 59.8125 C18.1719028 56.77051762 17.68388882 54.26648224 18 51 C17.34 50.67 16.68 50.34 16 50 C15.54296875 48.34765625 15.54296875 48.34765625 15.1875 46.0625 C14.28256995 41.09952423 13.04902783 36.2900184 11.6875 31.4375 C11.47351563 30.67373047 11.25953125 29.90996094 11.0390625 29.12304688 C9.90986424 25.12767772 8.75034739 21.14238289 7.5625 17.1640625 C7.33216064 16.3913501 7.10182129 15.6186377 6.86450195 14.82250977 C6.42195212 13.34516257 5.97534209 11.86902396 5.52416992 10.39428711 C4.64887095 7.48426172 4 5.05804319 4 2 C2.68 1.34 1.36 0.68 0 0 Z " fill="#121212" transform="translate(497,218)"/>
<path d="M0 0 C3.96 0 7.92 0 12 0 C11.01 0.495 11.01 0.495 10 1 C12.1222234 8.75549479 14.90556744 16.19322524 17.87109375 23.66235352 C18.63537912 25.58865955 19.39229864 27.51774912 20.1484375 29.44726562 C21.94332572 35.09880169 21.94332572 35.09880169 25 40 C25.66 39.34 26.32 38.68 27 38 C26.83991455 38.65468262 26.6798291 39.30936523 26.51489258 39.98388672 C25.8726515 43.74597597 25.79908689 47.45247704 25.76171875 51.2578125 C25.753647 52.04268036 25.74557526 52.82754822 25.73725891 53.63619995 C25.72347938 55.28853177 25.71273004 56.94089131 25.70483398 58.59326172 C25.6932529 60.28475264 25.67270567 61.97620533 25.64331055 63.66748047 C25.60080926 66.11450967 25.58449671 68.560461 25.57421875 71.0078125 C25.55671066 71.76409943 25.53920258 72.52038635 25.52116394 73.29959106 C25.4860347 75.68083441 25.4860347 75.68083441 26 79 C27.32 79.99 28.64 80.98 30 82 C25.38 82 20.76 82 16 82 C17.32 81.01 18.64 80.02 20 79 C21.17752501 73.641119 21.12483783 68.09977407 21.1875 62.625 C21.20068268 61.81508606 21.21386536 61.00517212 21.22744751 60.17071533 C21.34354296 42.06914837 15.76188114 17.2396467 3.40161133 3.18212891 C2.93907959 2.79202637 2.47654785 2.40192383 2 2 C1.34 1.34 0.68 0.68 0 0 Z " fill="#0D0D0D" transform="translate(524,218)"/>
<path d="M0 0 C0.89223328 2.98087028 0.98549685 5.34927994 0.75 8.4375 C0.72673292 11.98572902 0.85012886 12.7892437 3 15.8125 C10.03036948 20.93881108 17.45912422 23.17635206 25.75 25.4375 C51.65606755 32.77369682 51.65606755 32.77369682 57.875 41.6875 C59.67077304 46.97505396 60.07394695 52.11754497 58.09765625 57.421875 C57.14920662 59.32552478 56.08426701 61.17029941 55 63 C54.67 62.34 54.34 61.68 54 61 C54.30164063 60.41089844 54.60328125 59.82179688 54.9140625 59.21484375 C56.95051268 55.06136444 56.51083227 50.51011126 56 46 C53.35278636 40.46491694 47.47929269 38.19454875 42 36 C37.03036143 34.38990074 31.99957712 32.99537757 26.96484375 31.60546875 C5.1799305 25.52739286 5.1799305 25.52739286 -1 16 C-2.59712091 11.20863728 -2.58050244 6.74150731 -1 2 C-0.67 1.34 -0.34 0.68 0 0 Z " fill="#1F1F1F" transform="translate(380,227)"/>
<path d="M0 0 C0 3 0 3 -1 5.3125 C-2.66224979 9.77979631 -2.581678 12.70444446 -0.625 17.0625 C7.35681281 25.99452862 21.49437532 27.9500767 32.6328125 30.9921875 C41.22708376 33.45059606 49.78476876 36.26740801 55.125 43.875 C58.01053356 49.2178254 57.66056377 53.68802681 56 59.5 C55.67 60.325 55.34 61.15 55 62 C54.04352979 59.13058936 53.94675494 57.57398288 54.0625 54.625 C54.09225713 50.96487329 53.94559192 48.21022666 52 45 C50.69425031 44.28080604 49.35364229 43.62439954 48 43 C47.15308594 42.56042969 46.30617188 42.12085938 45.43359375 41.66796875 C38.8524305 38.41599891 32.54525269 36.19562622 25.4375 34.4375 C4.4953016 29.25327424 4.4953016 29.25327424 -2.8125 20.9375 C-5.14933614 15.15690533 -4.8385767 9.11467168 -2.5625 3.375 C-1 1 -1 1 0 0 Z " fill="#1D1D1D" transform="translate(577,224)"/>
<path d="M0 0 C0.33 0.66 0.66 1.32 1 2 C0.67 2.66 0.34 3.32 0 4 C-0.65821344 8.70152457 -0.5241084 12.06021942 1.8125 16.25 C8.6262583 23.00806 18.4610068 24.70934336 27.4375 26.9375 C39.25748899 29.88848903 49.61888287 32.62653809 57 43 C58.36271133 45.72542267 58.16923601 47.96087274 58.1875 51 C58.20167969 52.0725 58.21585938 53.145 58.23046875 54.25 C58 57 58 57 56 59 C56.04640625 58.34773438 56.0928125 57.69546875 56.140625 57.0234375 C56.31925803 52.69796633 56.30820775 49.68062546 54.5 45.6875 C45.95373732 36.50026762 33.0330763 33.96923238 21.25 31.0625 C12.79215649 28.8615082 3.78072737 25.82300842 -1 18 C-2.41693757 15.16612485 -2.1699013 12.71970627 -2.1875 9.5625 C-2.20167969 8.40878906 -2.21585938 7.25507813 -2.23046875 6.06640625 C-2 3 -2 3 0 0 Z " fill="#191919" transform="translate(26,226)"/>
<path d="M0 0 C0.66 0.33 1.32 0.66 2 1 C1.70331421 1.82504028 1.70331421 1.82504028 1.40063477 2.66674805 C0.88098185 5.69314834 1.56253815 7.44593443 2.58984375 10.33203125 C2.95795166 11.37093506 3.32605957 12.40983887 3.70532227 13.48022461 C4.11194092 14.57987549 4.51855957 15.67952637 4.9375 16.8125 C5.34991943 17.9372876 5.76233887 19.0620752 6.18725586 20.22094727 C13.17055381 38.84173656 22.18234005 56.1030172 40.765625 65.01953125 C45.47251036 67.08496521 49.63135517 67.14952455 54.6875 67.125 C55.46544922 67.12886719 56.24339844 67.13273437 57.04492188 67.13671875 C62.11521676 67.12826121 66.981268 66.72269741 72 66 C67.76788599 70.23211401 60.30437691 70.13925371 54.5625 70.3125 C41.63475797 70.00296251 29.92613006 64.30134349 21 55 C10.59474004 43.44077324 -3 21.15091733 -3 5 C-5.71224618 6.61268692 -8.37352812 8.24901874 -11 10 C-9.54144353 6.31353859 -7.69770955 4.83856029 -4.375 2.75 C-3.55773437 2.22921875 -2.74046875 1.7084375 -1.8984375 1.171875 C-1.27195312 0.78515625 -0.64546875 0.3984375 0 0 Z " fill="#191919" transform="translate(273,252)"/>
<path d="M0 0 C12.87 0 25.74 0 39 0 C39 2.31 39 4.62 39 7 C37 4 37 4 37 2 C32.05 1.67 27.1 1.34 22 1 C22 26.74 22 52.48 22 79 C21.67 79 21.34 79 21 79 C21 53.26 21 27.52 21 1 C20.01 1 19.02 1 18 1 C18 26.41 18 51.82 18 78 C17.67 78 17.34 78 17 78 C17 52.59 17 27.18 17 1 C12.38 1.33 7.76 1.66 3 2 C2.34 3.65 1.68 5.3 1 7 C0.67 7 0.34 7 0 7 C0 4.69 0 2.38 0 0 Z " fill="#4D4D4D" transform="translate(444,218)"/>
<path d="M0 0 C1.2052366 3.49198747 0.7801918 5.65531427 -0.26342773 9.16064453 C-0.56381454 10.18916534 -0.86420135 11.21768616 -1.1736908 12.27737427 C-1.50695877 13.38466888 -1.84022675 14.4919635 -2.18359375 15.6328125 C-2.87058277 17.98954251 -3.55742711 20.3463147 -4.24414062 22.703125 C-5.33736647 26.4104374 -6.43494519 30.1164064 -7.53637695 33.82128906 C-8.59678088 37.40107881 -9.64080487 40.98535871 -10.68359375 44.5703125 C-11.01483749 45.66546173 -11.34608124 46.76061096 -11.68736267 47.88894653 C-13.4809162 54.0780317 -15.29538369 60.5367395 -14 67 C-12.78033361 68.82529543 -12.78033361 68.82529543 -11 70 C-7.27013478 70.26641894 -4.55353929 70.1845131 -1 69 C0.02450239 66.81862203 0.02450239 66.81862203 1 64 C2.28967358 61.31110527 3.64269448 58.65531129 5 56 C6 59 6 59 4.7421875 62.03125 C4.12601563 63.1759375 3.50984375 64.320625 2.875 65.5 C2.27429688 66.6446875 1.67359375 67.789375 1.0546875 68.96875 C-1.08688223 72.12817606 -2.53730647 73.47314301 -6 75 C-10.10236878 75 -12.2108979 74.627235 -15.4375 72.0625 C-19.68325368 63.74082278 -15.98906748 54.03657776 -13.53515625 45.625 C-13.00600868 43.75557739 -13.00600868 43.75557739 -12.46617126 41.84838867 C-11.53621396 38.56446891 -10.59038269 35.28533087 -9.64129639 32.00689697 C-8.86659326 29.32072029 -8.10330572 26.63136312 -7.34055424 23.94177246 C-5.76626088 18.39140792 -4.18325538 12.84350835 -2.58227539 7.30078125 C-2.30025772 6.32278564 -2.01824005 5.34479004 -1.72767639 4.3371582 C-1 2 -1 2 0 0 Z " fill="#626262" transform="translate(214,226)"/>
<path d="M0 0 C1.27770937 3.611157 0.70652833 5.92875561 -0.35522461 9.55957031 C-0.67563217 10.67462952 -0.99603973 11.78968872 -1.32615662 12.9385376 C-1.68129837 14.13960144 -2.03644012 15.34066528 -2.40234375 16.578125 C-2.94719623 18.47381673 -3.49203669 20.36951201 -4.03617954 22.26540756 C-5.18812208 26.2670381 -6.35741661 30.26363193 -7.52471924 34.26080322 C-8.48333927 37.54534082 -9.43781635 40.83094444 -10.38148499 44.11981201 C-11.08961199 46.58456755 -11.80703433 49.0466765 -12.53489685 51.50567627 C-14.25772216 57.51005371 -15.60456561 62.74473678 -15 69 C-13.54002013 71.62716577 -13.54002013 71.62716577 -11 73 C-8.04308291 73.75015195 -8.04308291 73.75015195 -5 73 C-1.06609416 69.8894698 0.98790305 66.55369309 3 62 C4 65 4 65 2.85546875 67.41015625 C2.02982422 68.72306641 2.02982422 68.72306641 1.1875 70.0625 C0.64480469 70.94035156 0.10210937 71.81820312 -0.45703125 72.72265625 C-2 75 -2 75 -4 77 C-8.6382978 77.86569409 -12.06174992 77.59358679 -16.0625 75.0625 C-19.18249411 70.1308964 -18.49724809 65.36853829 -17.33938599 59.853302 C-16.39261276 56.16618421 -15.36966557 52.50531072 -14.31640625 48.84765625 C-13.93669539 47.49794593 -13.55796339 46.14795988 -13.18016052 44.79771423 C-12.18979614 41.26922818 -11.1851759 37.74495538 -10.17773438 34.22131348 C-9.35533687 31.33557938 -8.543281 28.44698352 -7.73170567 25.55819035 C-6.76335102 22.11204741 -5.79057182 18.66716053 -4.81640625 15.22265625 C-4.63083223 14.56617662 -4.44525822 13.909697 -4.25406075 13.23332405 C-3.72976941 11.38282179 -3.20200578 9.53330436 -2.67407227 7.68383789 C-2.3742897 6.63176651 -2.07450714 5.57969513 -1.76564026 4.4957428 C-1 2 -1 2 0 0 Z " fill="#5F5F5F" transform="translate(500,223)"/>
<path d="M0 0 C0.33 0 0.66 0 1 0 C1.03738281 0.66386719 1.07476562 1.32773437 1.11328125 2.01171875 C1.5087583 9.07520625 1.5087583 9.07520625 5 15 C10.23344731 18.65376621 14.69577586 19.71176724 21 19 C25.23798918 17.61450354 27.18816048 16.08976825 29.375 12.3125 C29.91125 11.219375 30.4475 10.12625 31 9 C31.495 10.485 31.495 10.485 32 12 C29.20348184 16.8680131 26.39079032 20.93742652 21.1875 23.25 C15.70314727 24.54043594 11.77720472 24.73763031 6.8125 21.9375 C2.95181545 19.253762 0.3706196 16.55709191 -1 12 C-1.85820896 3.71641791 -1.85820896 3.71641791 0 0 Z " fill="#1A1A1A" transform="translate(93,276)"/>
<path d="M0 0 C0.66 0 1.32 0 2 0 C2.89756951 1.0476549 3.74374295 2.1396628 4.5625 3.25 C8.74760347 8.3297079 14.59113819 10.81026383 21 12 C30.75894285 12.53249216 39.6995517 12.37467671 49 9 C43.8405116 14.44199641 37.27747334 15.00252337 30.0625 15.3125 C23.93057102 15.27894635 18.40418203 13.70187956 12.578125 11.97265625 C9.01410853 11.00383518 5.65758995 10.4454757 2 10 C1.34 10.99 0.68 11.98 0 13 C0 8.71 0 4.42 0 0 Z " fill="#4B4B4B" transform="translate(573,287)"/>
<path d="M0 0 C0.66 0 1.32 0 2 0 C2.89756951 1.0476549 3.74374295 2.1396628 4.5625 3.25 C8.81540078 8.4119975 14.55842392 10.64550322 21 12 C22.73285648 12.07952806 24.46847386 12.10774143 26.203125 12.09765625 C27.1828125 12.09443359 28.1625 12.09121094 29.171875 12.08789062 C30.18765625 12.07951172 31.2034375 12.07113281 32.25 12.0625 C33.28125 12.05798828 34.3125 12.05347656 35.375 12.04882812 C37.91672573 12.03706088 40.45833319 12.02062011 43 12 C39.62406256 15.37593744 35.23137944 15.18992128 30.625 15.3125 C23.03455756 15.2655875 16.20529639 13.1766827 9 11 C6.66850829 10.32672287 4.3342936 9.6635252 2 9 C2 10.32 2 11.64 2 13 C1.34 13 0.68 13 0 13 C0 8.71 0 4.42 0 0 Z " fill="#4C4C4C" transform="translate(378,287)"/>
<path d="M0 0 C6.34886348 0.25913728 9.6688614 2.38745974 14 7 C16.09294386 11.18588772 15.42417949 16.4415641 15 21 C12.67554306 25.91712045 9.22490815 28.73529825 5 32 C4.34 31.67 3.68 31.34 3 31 C3.63228516 30.29423828 3.63228516 30.29423828 4.27734375 29.57421875 C4.82519531 28.95160156 5.37304688 28.32898438 5.9375 27.6875 C6.48277344 27.07261719 7.02804687 26.45773438 7.58984375 25.82421875 C10.21172443 22.43247837 10.16170655 19.26226917 10.1875 15.125 C10.20876953 13.58199219 10.20876953 13.58199219 10.23046875 12.0078125 C9.99247783 8.90182935 9.43475867 6.75650552 8 4 C5.59047977 2.75285597 5.59047977 2.75285597 3 2 C2.01 1.34 1.02 0.68 0 0 Z " fill="#1F1F1F" transform="translate(274,219)"/>
<path d="M0 0 C0.99 1.0828125 0.99 1.0828125 2 2.1875 C9.59473169 9.7393236 18.26497131 12.39177406 28.8125 12.375 C29.99682617 12.37802124 29.99682617 12.37802124 31.20507812 12.38110352 C36.78628288 12.28422352 41.23409721 11.36366863 46.25 8.77734375 C46.8275 8.52082031 47.405 8.26429688 48 8 C48.66 8.33 49.32 8.66 50 9 C48.44148245 9.82011312 46.87798284 10.63076213 45.3125 11.4375 C44.00732422 12.11619141 44.00732422 12.11619141 42.67578125 12.80859375 C31.34267327 17.85472212 19.26378086 14.40272983 8 11 C5.66850829 10.32672287 3.3342936 9.6635252 1 9 C0.67 10.32 0.34 11.64 0 13 C0 8.71 0 4.42 0 0 Z " fill="#434343" transform="translate(24,287)"/>
<path d="M0 0 C1 3 1 3 -0.2578125 6.03125 C-0.87398437 7.1759375 -1.49015625 8.320625 -2.125 9.5 C-2.72570312 10.6446875 -3.32640625 11.789375 -3.9453125 12.96875 C-6.08688223 16.12817606 -7.53730647 17.47314301 -11 19 C-15.17955847 19 -17.22755042 18.65361118 -20.4375 15.9375 C-22.53874859 11.98715265 -22.30048996 9.43222695 -22 5 C-21.7525 5.556875 -21.505 6.11375 -21.25 6.6875 C-19.70396149 9.54767125 -18.34455741 11.71880901 -16 14 C-12.19611527 14.40040892 -9.62328619 14.20776206 -6 13 C-4.97549761 10.81862203 -4.97549761 10.81862203 -4 8 C-2.71032642 5.31110527 -1.35730552 2.65531129 0 0 Z " fill="#1F1F1F" transform="translate(219,282)"/>
<path d="M0 0 C1 3 1 3 -0.14453125 5.41015625 C-0.69496094 6.28542969 -1.24539063 7.16070312 -1.8125 8.0625 C-2.35519531 8.94035156 -2.89789063 9.81820313 -3.45703125 10.72265625 C-5 13 -5 13 -7 15 C-11.70419968 15.87799405 -15.07377352 15.62378518 -19.0625 12.9375 C-21.42484735 9.35587659 -21.41271158 7.20965814 -21 3 C-20.38125 3.86625 -20.38125 3.86625 -19.75 4.75 C-16.29645901 9.46126271 -16.29645901 9.46126271 -11.0625 11.5625 C-6.92772399 10.80305135 -5.61093159 9.24602305 -3 6 C-1.20679176 2.83354526 -1.20679176 2.83354526 0 0 Z " fill="#181818" transform="translate(503,285)"/>
<path d="M0 0 C3.48473243 1.34268364 6.80195955 2.86033096 10.125 4.5625 C15.84346975 7.49126034 20.29280189 8.15601713 26.6875 8.125 C27.85442383 8.13080078 27.85442383 8.13080078 29.04492188 8.13671875 C34.11521676 8.12826121 38.981268 7.72269741 44 7 C39.76788599 11.23211401 32.30437691 11.13925371 26.5625 11.3125 C16.75170568 11.07759366 7.78817615 8.06497883 0 2 C0 1.34 0 0.68 0 0 Z " fill="#464646" transform="translate(301,311)"/>
<path d="M0 0 C2.97 0 5.94 0 9 0 C8.40525879 0.341521 7.81051758 0.68304199 7.19775391 1.03491211 C4.22212216 3.69552752 3.18055783 6.78487319 1.8359375 10.44140625 C1.55779205 11.16488754 1.27964661 11.88836884 0.99307251 12.6337738 C0.10865878 14.93907926 -0.7590597 17.25019886 -1.625 19.5625 C-2.5004836 21.87734208 -3.37947867 24.19072356 -4.26449585 26.50193787 C-4.81376477 27.93862983 -5.35712545 29.37759745 -5.89395142 30.81898499 C-6.99180806 33.70942903 -7.78755902 35.78755902 -10 38 C-9.40868216 33.52287919 -8.24833231 29.7693866 -6.49609375 25.61328125 C-6.00302734 24.42798828 -5.50996094 23.24269531 -5.00195312 22.02148438 C-4.48110087 20.78488981 -3.95960963 19.5485642 -3.4375 18.3125 C-2.40916402 15.87356702 -1.38828054 13.4319292 -0.37109375 10.98828125 C0.08338135 9.91102783 0.53785645 8.83377441 1.00610352 7.72387695 C2.17138861 5.01354841 2.17138861 5.01354841 2 2 C1.34 1.34 0.68 0.68 0 0 Z " fill="#515151" transform="translate(561,218)"/>
<path d="M0 0 C6.17699743 0.34316652 10.39427028 1.94533345 15.80078125 4.94140625 C18.04373495 6.21685969 18.04373495 6.21685969 21 6 C21.66 5.34 22.32 4.68 23 4 C23 8.62 23 13.24 23 18 C22.34 16.68 21.68 15.36 21 14 C17.48402224 7.11454355 11.84679655 4.65563139 4.79296875 2.24609375 C3.20805134 1.78449866 1.60550159 1.38392429 0 1 C0 0.67 0 0.34 0 0 Z " fill="#3C3C3C" transform="translate(411,218)"/>
<path d="M0 0 C12.87 0 25.74 0 39 0 C39 2.31 39 4.62 39 7 C38.690625 6.360625 38.38125 5.72125 38.0625 5.0625 C37.1654837 3.06389179 37.1654837 3.06389179 36 2 C33.47905924 1.91152257 30.98569107 1.88472699 28.46484375 1.90234375 C27.71159317 1.9037587 26.95834259 1.90517365 26.18226624 1.90663147 C23.7673044 1.91224624 21.35243399 1.92480117 18.9375 1.9375 C17.30403779 1.9425131 15.67057414 1.94707634 14.03710938 1.95117188 C10.02470415 1.96222046 6.01236759 1.97949494 2 2 C1.67 3.65 1.34 5.3 1 7 C0.67 7 0.34 7 0 7 C0 4.69 0 2.38 0 0 Z " fill="#474747" transform="translate(294,218)"/>
<path d="M0 0 C12.87 0 25.74 0 39 0 C39 2.31 39 4.62 39 7 C37 4 37 4 37 2 C25.78 2 14.56 2 3 2 C2.34 3.65 1.68 5.3 1 7 C0.67 7 0.34 7 0 7 C0 4.69 0 2.38 0 0 Z " fill="#3F3F3F" transform="translate(444,218)"/>
<path d="M0 0 C0.66 0 1.32 0 2 0 C2 4.62 2 9.24 2 14 C1.34 14 0.68 14 0 14 C-0.226875 12.96875 -0.45375 11.9375 -0.6875 10.875 C-1.86471856 6.65591742 -4.04838971 4.18463216 -7 1 C-4.69 1.66 -2.38 2.32 0 3 C0 2.01 0 1.02 0 0 Z " fill="#464646" transform="translate(627,222)"/>
<path d="M0 0 C0.33 0 0.66 0 1 0 C1 4.62 1 9.24 1 14 C0.34 12.68 -0.32 11.36 -1 10 C-2.32405988 7.99384866 -3.65668346 5.99330842 -5 4 C-5.33 3.34 -5.66 2.68 -6 2 C-3.03 2.495 -3.03 2.495 0 3 C0 2.01 0 1.02 0 0 Z " fill="#181818" transform="translate(78,222)"/>
<path d="M0 0 C0.8353125 0.29003906 0.8353125 0.29003906 1.6875 0.5859375 C6.75117127 2.31374425 11.79322065 3.7693067 17 5 C17 5.33 17 5.66 17 6 C10.23784552 5.59060025 4.32837252 4.43046191 -2 2 C-1.34 1.34 -0.68 0.68 0 0 Z " fill="#3E3E3E" transform="translate(581,295)"/>
<path d="M0 0 C2.97 0 5.94 0 9 0 C8.401875 0.350625 7.80375 0.70125 7.1875 1.0625 C4.19535245 3.71268783 3.40462949 6.27773184 2 10 C1 7 1 7 1.5625 4.4375 C1.706875 3.633125 1.85125 2.82875 2 2 C1.34 1.34 0.68 0.68 0 0 Z " fill="#3C3C3C" transform="translate(561,218)"/>
<path d="M0 0 C0.33 0.99 0.66 1.98 1 3 C-1.15859924 6.83750975 -3.28595371 9.61239881 -7 12 C-7.99 11.34 -8.98 10.68 -10 10 C-9.0925 9.649375 -8.185 9.29875 -7.25 8.9375 C-3.08142471 6.45238781 -2.10847374 4.29804263 0 0 Z " fill="#3F3F3F" transform="translate(124,285)"/>
</svg>
