<?xml version="1.0" encoding="utf-8" ?>
<svg baseProfile="tiny" height="331" version="1.2" width="661" xmlns="http://www.w3.org/2000/svg" xmlns:ev="http://www.w3.org/2001/xml-events" xmlns:xlink="http://www.w3.org/1999/xlink"><defs /><polyline fill="none" points="293,223 293,224" stroke="black" stroke-width="1" /><polyline fill="none" points="278,219 279,219 280,220 281,220 282,221 283,222 284,223 285,224 286,225 287,226 287,227 288,228 288,229 289,230 289,231 289,232 289,233 289,234 289,235 289,236 289,237 288,238 288,239 288,240 287,241 286,242 286,243 285,244 284,245 283,246 282,247 281,248 280,249 279,250 278,251 277,251 276,252 275,253 274,253 273,254 273,255 273,256 273,257 274,258 274,259 274,260 275,261 275,262 275,263 275,264 276,265 276,266 276,267 277,268 277,269 277,270 278,271 278,272 279,273 279,274 279,275 280,276 280,277 281,278 281,279 281,280 282,281 282,282 283,283 283,284 283,285 284,286 284,287 285,288 285,289 286,290 287,291 287,292 288,293 288,294 289,295 290,296 290,297 291,298 292,299 292,300 293,301 294,302 295,303 295,304 296,305 297,306 298,307 299,308 300,309 301,309 302,310 303,311 304,312 305,312 306,313 307,314 308,314 309,315 310,316 309,317 308,317 307,316 306,316 305,315 304,314 303,314 302,313 301,312 300,311 299,311 298,310 297,309 296,308 295,307 294,306 293,305 293,304 292,303 291,302 290,301 289,300 289,299 288,298 287,297 287,296 286,295 285,294 285,293 284,292 283,291 283,290 282,289 282,288 281,287 281,286 280,285 280,284 279,283 279,282 278,281 278,280 277,279 277,278 276,277 276,276 276,275 275,274 275,273 274,272 274,271 274,270 273,269 273,268 273,267 272,266 272,265 272,264 271,263 271,262 271,261 270,260 270,259 270,258 269,257 269,256 269,257 270,258 270,259 270,260 271,261 271,262 271,263 272,264 272,265 272,266 273,267 273,268 273,269 274,270 274,271 274,272 275,273 275,274 276,275 276,276 276,277 277,278 277,279 278,280 278,281 278,282 279,283 279,284 280,285 280,286 281,287 281,288 282,289 282,290 283,291 283,292 284,293 285,294 285,295 286,296 287,297 287,298 288,299 289,300 289,301 290,302 291,303 292,304 293,305 294,306 295,307 295,308 296,308 297,309 298,310 299,311 300,312 301,313 302,313 303,314 304,315 305,315 306,316 307,317 308,317 309,318 310,318 311,318 312,319 313,319 314,319 315,320 316,320 317,320 318,321 319,321 320,321 321,321 322,321 323,321 322,321 321,321 320,321 319,321 318,321 317,320 316,320 315,320 314,319 315,318 316,318 317,318 318,318 319,319 320,319 321,319 322,319 323,319 324,319 325,320 326,320 327,320 328,320 329,320 330,320 331,321 330,322 329,322 328,322 327,322 326,322 325,322 326,322 327,322 328,322 329,322 330,322 331,321 332,321 333,321 334,321 335,321 336,321 337,321 338,320 339,320 340,320 341,320 342,319 343,319 344,319 345,319 345,318 345,317 344,317 343,317 342,317 341,318 340,318 339,318 338,318 337,319 336,319 335,319 334,319 333,319 332,319 331,319 330,320 329,320 328,320 327,320 326,320 325,320 324,319 323,319 322,319 321,319 320,319 319,319 318,318 317,318 316,318 315,318 314,317 313,317 312,316 311,316 310,315 309,315 308,314 307,313 306,313 305,312 304,311 303,311 302,310 301,309 300,308 299,307 298,306 297,305 296,304 295,303 295,302 294,301 293,300 292,299 292,298 291,297 290,296 290,295 289,294 288,293 288,292 287,291 287,290 286,289 285,288 285,287 284,286 284,285 283,284 283,283 282,282 282,281 281,280 281,279 281,278 280,277 280,276 279,275 279,274 279,273 278,272 278,271 277,270 277,269 277,268 276,267 276,266 276,265 275,264 275,263 275,262 275,261 274,260 274,259 274,258 273,257 273,256 273,255 273,254 274,253 275,253 276,252 277,251 278,251 279,250 280,250 281,249 282,248 283,247 284,246 285,245 286,244 286,243 287,242 288,241 288,240 288,239 288,238 289,237 289,236 289,235 289,234 289,233 289,232 289,231 289,230 288,229 288,228 288,227 287,226 287,225 286,224 285,223 284,222 283,221 282,221 281,220 280,220 279,219" stroke="black" stroke-width="1" /><polyline fill="none" points="274,218 275,218 276,218 275,218" stroke="black" stroke-width="1" /><polyline fill="none" points="568,217 569,217" stroke="black" stroke-width="1" /><polyline fill="none" points="534,217 533,218 532,218 531,218 530,218 529,218 528,218 529,218 530,218 531,218 532,218 533,218 534,219 533,220 533,221 533,222 534,223 534,224 534,225 535,226 535,227 536,228 536,229 536,230 537,231 537,232 538,233 538,234 538,235 539,236 539,237 540,238 540,239 540,240 541,241 541,242 542,243 542,244 542,245 543,246 543,247 544,248 544,249 544,250 545,251 545,252 546,253 546,254 546,255 547,256 547,257 547,258 547,257 547,256 546,255 546,254 546,253 545,252 545,251 544,250 544,249 544,248 543,247 543,246 542,245 542,244 542,243 541,242 541,241 540,240 540,239 540,238 539,237 539,236 538,235 538,234 538,233 537,232 537,231 536,230 536,229 536,228 535,227 535,226 534,225 534,224 534,223 533,222 533,221 534,220 535,219 536,219 536,218 536,217 535,217" stroke="black" stroke-width="1" /><polyline fill="none" points="523,217 523,218 523,219 524,219 525,219 526,219 527,220 528,221 529,222 529,223 530,224 530,225 530,226 531,227 531,228 532,229 532,230 532,231 533,232 533,233 534,234 534,235 534,236 535,237 535,238 536,239 536,240 536,241 537,242 537,243 538,244 538,245 538,246 539,247 539,248 540,249 540,250 540,251 541,252 541,253 542,254 542,255 542,256 543,257 543,258 544,259 544,260 544,261 544,262 545,263 545,264 545,265 545,266 545,267 545,268 545,269 545,270 545,271 545,272 545,273 545,274 545,275 545,276 545,277 545,278 545,279 545,280 545,281 545,282 545,283 545,284 545,285 545,286 545,287 545,288 545,289 545,290 545,291 545,292 545,293 545,294 544,295 544,296 544,297 543,298 542,298 541,298 540,298 540,299 540,300 541,300 542,300 543,300 544,300 545,300 546,300 547,300 548,300 549,300 550,300 551,300 552,300 553,300 553,299 553,298 552,298 551,298 550,297 549,296 549,295 549,294 549,293 549,292 549,291 549,290 549,289 549,288 549,287 549,286 549,285 549,284 549,283 549,282 549,281 549,280 549,279 549,278 549,277 549,276 549,275 549,274 549,273 549,272 549,271 549,270 549,269 549,268 549,267 549,266 549,265 549,264 549,263 549,262 549,261 550,260 550,259 551,258 551,257 551,256 552,255 552,254 553,253 553,252 554,251 554,250 554,249 555,248 555,247 556,246 556,245 556,244 556,243 557,242 558,241 558,240 558,239 558,238 559,237 559,236 560,235 560,234 560,233 561,232 561,231 562,230 562,229 562,228 563,227 563,226 564,225 564,224 564,223 565,222 565,221 566,220 567,219 568,219 569,219 570,219 569,219 568,219 567,219 566,218 565,218 564,218 563,219 562,219 561,218 562,217 561,217 561,218 561,219 562,219 563,220 563,221 563,222 562,223 562,224 562,225 561,226 561,227 560,228 560,229 560,230 559,231 559,232 558,233 558,234 557,235 557,236 557,237 556,238 556,239 555,240 555,241 555,242 554,243 554,244 553,245 553,246 553,247 552,248 552,249 551,250 551,251 551,252 551,253 550,254 550,255 549,256 549,257 549,256 550,255 551,256 551,257 551,258 550,259 550,260 549,261 549,262 549,263 549,264 549,265 549,266 549,267 549,268 549,269 549,270 549,271 549,272 549,273 549,274 549,275 549,276 549,277 549,278 549,279 549,280 549,281 549,282 549,283 549,284 549,285 549,286 549,287 549,288 549,289 549,290 549,291 549,292 549,293 549,294 549,295 549,296 549,297 550,298 551,298 552,298 553,299 552,300 551,300 550,300 549,300 548,300 547,300 546,300 545,300 544,300 543,300 542,300 541,300 540,299 541,298 542,298 543,298 544,298 544,297 544,296 544,295 545,294 545,293 545,292 545,291 545,290 545,289 545,288 545,287 545,286 545,285 545,284 545,283 545,282 545,281 545,280 545,279 545,278 545,277 545,276 545,275 545,274 545,273 545,272 545,271 545,270 545,269 545,268 545,267 545,266 545,265 545,264 545,263 544,262 544,261 544,260 544,259 543,258 543,257 542,256 542,255 542,254 541,253 541,252 540,251 540,250 540,249 539,248 539,247 538,246 538,245 538,244 537,243 537,242 536,241 536,240 536,239 535,238 535,237 534,236 534,235 534,234 533,233 533,232 532,231 532,230 532,229 531,228 531,227 530,226 530,225 530,224 529,223 529,222 529,221 528,220 527,220 526,219 525,219 524,219 523,218 524,217 525,217 526,217 525,217 524,217" stroke="black" stroke-width="1" /><polyline fill="none" points="507,217 508,217 509,217 508,217" stroke="black" stroke-width="1" /><polyline fill="none" points="496,217 496,218 496,219 497,219 498,219 499,220 500,221 500,222 499,223 499,224 499,225 498,226 498,227 498,228 498,229 497,230 497,231 497,232 496,233 496,234 496,235 496,236 495,237 495,238 495,239 494,240 494,241 494,242 494,243 493,244 493,245 493,246 492,247 492,248 492,249 492,250 491,251 491,252 491,253 490,254 490,255 490,256 490,257 489,258 489,259 489,260 488,261 488,262 488,263 488,264 487,265 487,266 487,267 487,268 486,269 486,270 486,271 485,272 485,273 485,274 485,275 484,276 484,277 484,278 483,279 483,280 483,281 483,282 482,283 482,284 482,285 482,286 482,287 481,288 481,289 481,290 481,291 481,292 482,293 482,294 482,295 483,296 483,297 484,298 485,299 486,299 487,299 488,300 489,300 490,300 491,300 492,300 493,300 494,299 495,299 496,299 497,298 498,297 499,296 499,295 500,294 501,293 501,292 502,291 502,290 503,289 503,288 504,287 504,286 504,285 505,284 505,283 506,282 506,281 507,280 507,279 507,278 508,277 508,276 509,275 509,274 510,273 511,272 512,271 512,270 513,269 514,270 515,271 515,272 515,273 515,274 516,275 516,276 516,277 517,278 517,279 517,280 517,281 518,282 518,283 518,284 519,285 519,286 519,287 519,288 520,289 520,290 520,291 520,292 521,293 521,294 521,295 521,296 521,297 520,298 519,298 518,298 518,299 518,300 519,300 520,300 521,300 522,300 523,300 524,300 525,300 526,300 527,300 528,300 529,300 530,300 531,300 531,299 531,298 530,298 529,298 528,298 527,297 526,296 526,295 525,294 525,293 525,292 525,291 524,290 524,289 524,288 523,287 523,286 523,285 523,284 522,283 522,282 522,281 522,280 521,279 521,278 521,277 520,276 520,275 520,274 520,273 519,272 519,271 519,270 518,269 518,268 518,267 518,266 517,265 517,264 517,263 517,262 516,261 516,260 516,259 515,258 515,257 515,256 515,255 514,254 514,253 514,252 513,251 513,250 513,249 513,248 512,247 512,246 512,245 512,244 511,243 511,242 511,241 510,240 510,239 510,238 510,237 509,236 509,235 509,234 508,233 508,232 508,231 508,230 507,229 507,228 507,227 507,226 506,225 506,224 506,223 506,222 505,221 506,220 507,219 508,219 509,219 508,219 507,219 506,219 505,218 504,218 503,218 502,218 501,218 500,218 499,217 498,217 497,217" stroke="black" stroke-width="1" /><polyline fill="none" points="447,217 448,217 449,217 450,217 451,217 452,217 453,217 454,217 455,217 456,217 457,217 458,217 459,217 460,217 461,218 460,219 459,219 458,219 457,219 456,219 455,219 454,219 453,219 452,219 451,219 450,219 449,219 448,219 447,219 446,219 445,218 444,218 443,219 443,220 443,221 443,222 443,223 443,224 443,225 444,225 445,225 445,224 445,223 445,222 445,221 446,220 447,219 448,219 449,219 450,219 451,219 452,219 453,219 454,219 455,219 456,219 457,219 458,219 459,219 460,219 461,220 461,221 461,222 461,223 461,224 461,225 461,226 461,227 461,228 461,229 461,230 461,231 461,232 461,233 461,234 461,235 461,236 461,237 461,238 461,239 461,240 461,241 461,242 461,243 461,244 461,245 461,246 461,247 461,248 461,249 461,250 461,251 461,252 461,253 461,254 461,255 461,256 461,257 461,258 461,259 461,260 461,261 461,262 461,263 461,264 461,265 461,266 461,267 461,268 461,269 461,270 461,271 461,272 461,273 461,274 461,275 461,276 461,277 461,278 461,279 461,280 461,281 461,282 461,283 461,284 461,285 461,286 461,287 461,288 461,289 461,290 461,291 461,292 461,293 461,294 461,295 460,296 460,297 459,298 458,298 457,298 456,298 456,299 456,300 457,300 458,300 459,300 460,300 461,300 462,300 463,300 464,300 465,300 466,300 467,300 468,300 469,300 470,300 470,299 470,298 469,298 468,298 467,298 466,297 465,296 465,295 465,294 465,293 465,292 465,291 465,290 465,289 465,288 465,287 465,286 465,285 465,284 465,283 465,282 465,281 465,280 465,279 465,278 465,277 465,276 465,275 465,274 465,273 465,272 465,271 465,270 465,269 465,268 465,267 465,266 465,265 465,264 465,263 465,262 465,261 465,260 465,259 465,258 465,257 465,256 465,255 465,254 465,253 465,252 465,251 465,250 465,249 465,248 465,247 465,246 465,245 465,244 465,243 465,242 465,241 465,240 465,239 465,238 465,237 465,236 465,235 465,234 465,233 465,232 465,231 465,230 465,229 465,228 465,227 465,226 465,225 465,224 465,223 465,222 465,221 465,220 466,219 467,219 468,219 469,219 470,219 471,219 472,219 473,219 474,219 475,219 476,219 477,219 478,219 479,219 480,220 481,221 481,222 481,223 481,224 481,225 482,225 483,225 483,224 483,223 483,222 483,223 483,224 482,225 481,224 481,223 481,222 481,221 482,220 482,219 482,218 481,218 480,218 479,217 478,217 477,217 476,217 475,217 474,217 473,217 472,217 471,217 470,217 469,217 468,217 467,217 466,217 467,217 468,217 469,217 470,217 471,217 472,217 473,217 474,217 475,217 476,217 477,217 478,217 479,217 480,218 479,219 478,219 477,219 476,219 475,219 474,219 473,219 472,219 471,219 470,219 469,219 468,219 467,219 466,219 465,220 465,221 465,222 465,223 465,224 465,225 465,226 465,227 465,228 465,229 465,230 465,231 465,232 465,233 465,234 465,235 465,236 465,237 465,238 465,239 465,240 465,241 465,242 465,243 465,244 465,245 465,246 465,247 465,248 465,249 465,250 465,251 465,252 465,253 465,254 465,255 465,256 465,257 465,258 465,259 465,260 465,261 465,262 465,263 465,264 465,265 465,266 465,267 465,268 465,269 465,270 465,271 465,272 465,273 465,274 465,275 465,276 465,277 465,278 465,279 465,280 465,281 465,282 465,283 465,284 465,285 465,286 465,287 465,288 465,289 465,290 465,291 465,292 465,293 465,294 465,295 465,296 465,297 466,298 467,298 468,298 469,298 470,299 469,300 468,300 467,300 466,300 465,300 464,300 463,300 462,300 461,300 460,300 459,300 458,300 457,300 456,299 457,298 458,298 459,298 460,298 460,297 460,296 461,295 461,294 461,293 461,292 461,291 461,290 461,289 461,288 461,287 461,286 461,285 461,284 461,283 461,282 461,281 461,280 461,279 461,278 461,277 461,276 461,275 461,274 461,273 461,272 461,271 461,270 461,269 461,268 461,267 461,266 461,265 461,264 461,263 461,262 461,261 461,260 461,259 461,258 461,257 461,256 461,255 461,254 461,253 461,252 461,251 461,250 461,249 461,248 461,247 461,246 461,245 461,244 461,243 461,242 461,241 461,240 461,239 461,238 461,237 461,236 461,235 461,234 461,233 461,232 461,231 461,230 461,229 461,228 461,227 461,226 461,225 461,224 461,223 461,222 461,221 461,220 460,219 461,218 462,218 463,218 464,218 463,218 462,218 461,218 460,217 459,217 458,217 457,217 456,217 455,217 454,217 453,217 452,217 451,217 450,217 449,217 448,217" stroke="black" stroke-width="1" /><polyline fill="none" points="298,217 299,217 300,217 301,217 302,217 303,217 304,217 305,217 306,217 307,217 308,217 309,217 310,217 311,218 310,219 309,219 308,219 307,219 306,219 305,219 304,219 303,219 302,219 301,219 300,219 299,219 298,219 297,219 296,218 295,218 294,218 294,219 294,220 294,221 295,222 295,223 295,224 295,225 295,224 295,223 295,222 296,221 297,220 298,219 299,219 300,219 301,219 302,219 303,219 304,219 305,219 306,219 307,219 308,219 309,219 310,219 311,220 311,221 311,222 311,223 311,224 311,225 311,226 311,227 311,228 311,229 311,230 311,231 311,232 311,233 311,234 311,235 311,236 311,237 311,238 311,239 311,240 311,241 311,242 311,243 311,244 311,245 311,246 311,247 311,248 311,249 311,250 311,251 311,252 311,253 311,254 311,255 311,256 311,257 311,258 311,259 311,260 311,261 311,262 311,263 311,264 311,265 311,266 311,267 311,268 311,269 311,270 311,271 311,272 311,273 311,274 311,275 311,276 311,277 311,278 311,279 311,280 311,281 311,282 311,283 311,284 311,285 311,286 311,287 311,288 311,289 311,290 311,291 311,292 311,293 311,294 311,295 311,296 310,297 309,298 308,298 307,298 307,299 307,300 308,300 309,300 310,300 311,300 312,300 313,300 314,300 315,300 316,300 317,300 318,300 319,300 320,300 320,299 320,298 319,298 318,298 317,298 316,297 316,296 316,295 316,294 316,293 316,292 316,291 316,290 316,289 316,288 316,287 316,286 316,285 316,284 316,283 316,282 316,281 316,280 316,279 316,278 316,277 316,276 316,275 316,274 316,273 316,272 316,271 316,270 316,269 316,268 316,267 316,266 316,265 316,264 316,263 316,262 316,261 316,260 316,259 316,258 316,257 316,256 316,255 316,254 316,253 316,252 316,251 316,250 316,249 316,248 316,247 316,246 316,245 316,244 316,243 316,242 316,241 316,240 316,239 316,238 316,237 316,236 316,235 316,234 316,233 316,232 316,231 316,230 316,229 316,228 316,227 316,226 316,225 316,224 316,223 316,222 316,221 316,220 317,219 318,219 319,219 320,219 321,219 322,219 323,219 324,219 325,219 326,219 327,219 328,219 329,219 330,220 331,221 331,222 331,223 331,224 331,223 331,222 331,221 331,220 330,219 331,218 332,218 333,219 333,220 333,221 333,222 333,223 333,224 333,225 333,224 333,223 333,222 333,221 333,220 333,219 333,218 332,218 331,218 330,219 329,219 328,219 327,219 326,219 325,219 324,219 323,219 322,219 321,219 320,219 319,219 318,219 317,219 316,219 315,218 316,217 317,217 318,217 319,217 320,217 321,217 322,217 323,217 324,217 325,217 326,217 327,217 328,217 329,217 328,217 327,217 326,217 325,217 324,217 323,217 322,217 321,217 320,217 319,217 318,217 317,217 316,217 315,218 314,218 313,218 312,218 311,218 310,217 309,217 308,217 307,217 306,217 305,217 304,217 303,217 302,217 301,217 300,217 299,217" stroke="black" stroke-width="1" /><polyline fill="none" points="252,217 252,218 252,219 253,219 254,220 255,220 256,221 256,222 256,223 256,224 256,225 256,226 256,227 256,228 256,229 256,230 256,231 256,232 256,233 256,234 256,235 256,236 256,237 256,238 256,239 256,240 256,241 256,242 256,243 256,244 256,245 256,246 256,247 256,248 256,249 256,250 256,251 256,252 256,253 256,254 256,255 256,256 256,257 256,258 256,259 256,260 256,261 256,262 256,263 256,264 256,265 256,266 256,267 256,268 256,269 256,270 256,271 256,272 256,273 256,274 256,275 256,276 256,277 256,278 256,279 256,280 256,281 256,282 256,283 256,284 256,285 256,286 256,287 256,288 256,289 256,290 256,291 256,292 256,293 256,294 256,295 256,296 255,297 254,298 253,298 252,298 251,298 252,299 251,300 252,300 253,300 254,300 255,300 256,300 257,300 258,300 259,300 260,300 261,300 262,300 263,300 264,300 265,300 265,299 265,298 264,298 263,298 262,298 261,297 261,296 260,295 260,294 260,293 260,292 260,291 260,290 260,289 260,288 260,287 260,286 260,285 260,284 260,283 260,282 260,281 260,280 260,279 260,278 260,277 260,276 260,275 260,274 260,273 260,272 260,271 260,270 260,269 260,268 260,267 260,266 261,265 261,264 261,263 262,262 263,262 263,261 264,260 265,259 266,258 267,258 267,257 266,258 265,259 264,260 263,261 262,262 261,263 260,262 260,261 260,260 260,259 260,258 260,257 260,256 260,255 260,254 260,253 260,252 260,251 260,250 260,249 260,248 260,247 260,246 260,245 260,244 260,243 260,242 260,241 260,240 260,239 260,238 260,237 260,236 260,235 260,234 260,233 260,232 260,231 260,230 260,229 260,228 260,227 260,226 260,225 260,224 260,223 260,222 260,221 260,220 261,219 262,219 263,219 264,219 265,219 266,219 267,219 268,219 269,219 270,219 271,219 272,219 273,220 274,220 275,220 276,220 277,221 278,221 279,222 280,223 281,224 282,225 283,226 284,227 284,228 284,229 285,230 285,231 285,232 285,233 285,234 285,235 285,236 285,237 285,238 284,239 284,240 284,241 283,242 282,243 282,244 281,245 280,246 279,247 278,248 277,249 276,249 275,250 274,250 273,251 272,252 271,252 270,253 269,254 268,254 267,255 266,255 265,256 264,257 263,258 264,257 265,256 266,255 267,255 268,254 269,254 270,254 271,253 272,252 273,251 274,251 275,250 276,249 277,249 278,248 279,247 280,246 281,245 282,244 283,243 283,242 284,241 284,240 284,239 285,238 285,237 285,236 285,235 285,234 285,233 285,232 285,231 285,230 284,229 284,228 284,227 284,226 283,225 282,224 281,223 280,222 279,222 278,221 277,221 276,220 275,220 274,220 273,220 272,219 271,219 270,219 269,219 268,219 267,219 266,219 265,219 264,219 263,219 262,219 261,219 260,218 261,217 262,217 263,217 264,217 265,217 266,217 267,217 268,217 269,217 270,217 271,217 272,217 271,217 270,217 269,217 268,217 267,217 266,217 265,217 264,217 263,217 262,217 261,217 260,218 259,218 258,218 257,218 256,218 255,218 254,219 253,219 252,218 253,217" stroke="black" stroke-width="1" /><polyline fill="none" points="211,217 211,218 211,219 212,219 213,219 214,220 215,221 215,222 214,223 214,224 213,225 213,226 213,227 213,228 212,229 212,230 212,231 211,232 211,233 211,234 211,235 210,236 210,237 210,238 209,239 209,240 209,241 209,242 208,243 208,244 208,245 207,246 207,247 207,248 207,249 206,250 206,251 206,252 206,253 205,254 205,255 205,256 204,257 204,258 204,259 204,260 203,261 203,262 203,263 202,264 202,265 202,266 202,267 201,268 201,269 201,270 200,271 200,272 200,273 200,274 199,275 199,276 199,277 198,278 198,279 198,280 198,281 197,282 197,283 197,284 197,285 196,286 196,287 196,288 196,289 196,290 196,291 196,292 196,293 197,294 197,295 197,296 198,297 199,298 200,299 201,299 202,299 203,300 204,300 205,300 206,300 207,300 208,300 209,299 210,299 211,299 212,298 213,297 213,296 214,295 215,294 215,293 216,292 217,291 217,290 217,289 218,288 218,287 219,286 219,285 220,284 220,283 220,282 221,281 221,280 222,279 222,278 223,277 223,276 224,275 224,274 225,273 226,272 226,271 227,270 228,269 229,270 229,271 230,272 230,273 230,274 230,275 231,276 231,277 231,278 232,279 232,280 232,281 232,282 233,283 233,284 233,285 234,286 234,287 234,288 234,289 235,290 235,291 235,292 236,293 236,294 236,295 236,296 236,297 235,298 234,298 233,298 233,299 233,300 234,300 235,300 236,300 237,300 238,300 239,300 240,300 241,300 242,300 243,300 244,300 245,300 245,299 245,298 244,298 243,298 242,297 241,296 240,295 240,294 240,293 240,292 239,291 239,290 239,289 239,288 238,287 238,286 238,285 237,284 237,283 237,282 237,281 236,280 236,279 236,278 235,277 235,276 235,275 235,274 234,273 234,272 234,271 234,270 233,269 233,268 233,267 232,266 232,265 232,264 232,263 231,262 231,261 231,260 230,259 230,258 230,257 230,256 229,255 229,254 229,253 229,252 228,251 228,250 228,249 227,248 227,247 227,246 227,245 226,244 226,243 226,242 225,241 225,240 225,239 225,238 224,237 224,236 224,235 224,234 223,233 223,232 223,231 222,230 222,229 222,228 222,227 221,226 221,225 221,224 220,223 220,222 220,221 221,220 222,219 223,219 223,218 223,217 222,217 223,218 222,219 221,219 220,218 219,218 218,218 217,218 216,218 215,218 214,219 213,219 212,219 211,218 212,217 213,217 212,217" stroke="black" stroke-width="1" /><polyline fill="none" points="111,217 111,218 111,219 112,219 113,219 114,220 115,221 115,222 114,223 114,224 113,225 113,226 113,227 112,228 112,229 111,230 111,231 111,232 110,233 110,234 109,235 109,236 108,237 108,238 108,239 107,240 107,241 106,242 106,243 105,244 105,245 105,246 104,247 104,248 103,249 103,250 103,251 102,252 102,253 101,254 101,255 100,256 100,257 100,258 99,259 99,260 98,261 98,262 98,263 97,264 97,265 96,266 96,267 95,268 95,269 95,270 94,271 94,272 93,273 93,274 92,275 92,276 92,277 92,278 91,279 91,280 91,281 91,282 91,283 91,284 91,285 92,286 92,287 92,288 93,289 93,290 93,291 94,292 94,293 95,294 96,295 97,296 98,296 99,297 100,298 101,298 102,298 103,298 104,299 105,299 106,299 107,299 108,299 109,299 110,299 111,299 112,299 113,298 114,298 115,298 116,297 117,297 118,296 119,295 120,295 121,294 121,293 122,292 123,291 123,290 124,289 124,288 125,287 125,286 125,285 126,284 126,283 127,282 127,281 128,280 128,279 128,278 129,277 129,276 130,275 130,274 130,273 131,272 131,271 132,270 132,269 132,268 131,267 131,266 132,265 133,265 134,266 134,267 135,268 135,269 135,270 136,271 136,272 137,273 137,274 137,275 138,276 138,277 139,278 139,279 139,280 140,281 140,282 141,283 141,284 141,285 142,286 142,287 143,288 143,289 143,290 144,291 144,292 145,293 145,294 145,295 146,296 145,297 144,298 143,298 143,299 143,300 144,300 145,300 146,300 147,300 148,300 149,300 150,300 151,300 152,300 153,300 154,300 155,300 155,299 155,298 154,298 153,298 152,298 151,297 150,296 150,295 149,294 149,293 149,292 148,291 148,290 147,289 147,288 147,287 146,286 146,285 145,284 145,283 144,282 144,281 144,280 143,279 143,278 142,277 142,276 142,275 141,274 141,273 140,272 140,271 140,270 139,269 139,268 138,267 138,266 138,265 137,264 137,263 136,262 136,261 136,260 136,259 136,258 137,257 138,256 138,255 138,254 139,253 139,252 140,251 140,250 141,249 141,248 141,247 142,246 142,245 143,244 143,243 144,242 144,241 144,240 145,239 145,238 146,237 146,236 147,235 147,234 147,233 148,232 148,231 149,230 149,229 149,228 150,227 150,226 149,225 149,224 149,223 150,222 151,223 152,224 152,225 152,226 153,227 153,228 153,229 154,230 154,231 155,232 155,233 155,234 156,235 156,236 157,237 157,238 157,239 158,240 158,241 159,242 159,243 159,244 160,245 160,246 161,247 161,248 161,249 162,250 162,251 163,252 163,253 163,254 164,255 164,256 165,257 165,258 165,259 166,260 166,261 167,262 167,263 167,264 168,265 168,266 169,267 169,268 169,269 170,270 170,271 171,272 171,273 171,274 172,275 172,276 173,277 173,278 173,279 174,280 174,281 175,282 175,283 175,284 176,285 176,286 177,287 177,288 177,289 178,290 178,291 179,292 179,293 179,294 180,295 180,296 180,297 179,298 178,298 177,298 177,299 177,300 178,300 179,300 180,300 181,300 182,300 183,300 184,300 185,300 186,300 187,300 188,300 189,300 190,300 189,299 190,298 189,298 188,298 187,298 186,297 185,296 184,295 184,294 183,293 183,292 183,291 182,290 182,289 181,288 181,287 181,286 180,285 180,284 179,283 179,282 179,281 178,280 178,279 177,278 177,277 177,276 176,275 176,274 175,273 175,272 175,271 174,270 174,269 173,268 173,267 173,266 172,265 172,264 171,263 171,262 171,261 170,260 170,259 169,258 169,257 169,256 168,255 168,254 167,253 167,252 167,251 166,250 166,249 165,248 165,247 165,246 164,245 164,244 163,243 163,242 163,241 162,240 162,239 161,238 161,237 161,236 160,235 160,234 159,233 159,232 159,231 158,230 158,229 157,228 157,227 157,226 156,225 156,224 155,223 155,222 155,221 155,220 156,219 157,219 158,219 158,218 158,217 157,217 156,217 157,217 158,218 157,219 156,219 155,220 155,221 155,222 155,223 156,224 156,225 157,226 157,227 157,228 158,229 158,230 159,231 159,232 159,233 160,234 160,235 161,236 161,237 161,238 162,239 162,240 163,241 163,242 163,243 164,244 164,245 165,246 165,247 165,248 166,249 166,250 167,251 167,252 167,253 168,254 168,255 169,256 169,257 169,258 170,259 170,260 171,261 171,262 171,263 172,264 172,265 173,266 173,267 173,268 174,269 174,270 175,271 175,272 175,273 176,274 176,275 177,276 177,277 177,278 178,279 178,280 179,281 179,282 179,283 180,284 180,285 181,286 181,287 181,288 182,289 182,290 183,291 183,292 183,293 184,294 184,295 185,296 185,297 186,298 187,298 188,298 189,299 188,300 187,300 186,300 185,300 184,300 183,300 182,300 181,300 180,300 179,300 178,300 177,299 178,298 179,298 180,298 180,297 180,296 180,295 179,294 179,293 179,292 178,291 178,290 177,289 177,288 177,287 176,286 176,285 175,284 175,283 175,282 174,281 174,280 173,279 173,278 173,277 172,276 172,275 171,274 171,273 171,272 170,271 170,270 169,269 169,268 169,267 168,266 168,265 167,264 167,263 167,262 166,261 166,260 165,259 165,258 165,257 164,256 164,255 163,254 163,253 163,252 162,251 162,250 161,249 161,248 161,247 160,246 160,245 159,244 159,243 159,242 158,241 158,240 157,239 157,238 157,237 156,236 156,235 155,234 155,233 155,232 154,231 154,230 153,229 153,228 153,227 152,226 152,225 152,224 151,223 150,222 150,221 150,220 149,220 148,219 149,218 150,218 151,218 152,218 153,218 154,218 153,218 152,218 151,218 150,218 149,218 148,217 147,217 146,217 146,218 146,219 147,219 148,219 149,220 150,221 150,222 149,223 149,224 148,225 148,226 147,227 147,228 147,229 146,230 146,231 145,232 145,233 144,234 144,235 144,236 143,237 143,238 142,239 142,240 142,241 141,242 141,243 140,244 140,245 139,246 139,247 139,248 138,249 138,250 137,251 137,252 136,253 136,254 136,255 137,256 137,257 136,258 135,258 134,257 134,256 134,255 133,254 133,253 132,252 132,251 132,250 131,249 131,248 130,247 130,246 130,245 129,244 129,243 128,242 128,241 128,240 127,239 127,238 126,237 126,236 126,235 125,234 125,233 124,232 124,231 124,230 123,229 123,228 122,227 122,226 122,225 121,224 121,223 121,222 120,221 121,220 122,219 123,219 123,218 123,217 122,217 123,218 122,219 121,219 120,218 119,218 118,218 117,218 116,218 115,218 114,219 113,219 112,219 111,218 112,217 113,217 112,217" stroke="black" stroke-width="1" /><polyline fill="none" points="590,216 589,217 588,217 587,217 586,217 585,218 584,218 583,218 582,219 581,219 580,220 579,221 578,221 577,222 576,223 575,224 575,225 574,226 574,227 573,228 573,229 573,230 573,231 572,232 572,233 572,234 572,235 572,236 572,237 572,238 573,239 573,240 573,241 574,242 574,243 574,244 575,245 576,246 576,247 577,247 578,248 579,249 580,250 581,250 582,251 583,251 584,252 585,252 586,253 587,253 588,253 589,254 590,254 591,254 592,255 593,255 594,255 595,256 596,256 597,256 598,257 599,257 600,257 601,257 602,258 603,258 604,258 605,258 606,259 607,259 608,259 609,260 610,260 611,260 612,260 613,261 614,261 615,261 616,262 617,262 618,263 619,263 620,264 621,264 622,265 623,265 624,266 625,267 626,268 627,268 628,269 629,270 629,271 630,272 631,273 631,274 631,275 631,276 632,277 633,278 633,279 633,280 633,281 633,282 633,283 632,284 631,283 631,282 631,281 631,280 631,279 631,280 631,281 631,282 631,283 630,284 630,285 629,286 628,287 628,288 627,289 626,290 625,291 624,292 623,293 622,294 621,294 620,295 619,296 618,296 617,297 616,297 615,297 614,298 613,298 612,298 611,299 610,299 609,299 608,299 607,299 606,299 605,299 604,300 603,300 602,300 601,299 600,299 599,299 598,299 597,299 596,299 595,299 594,299 593,299 592,298 591,298 590,298 589,298 588,297 587,297 586,297 585,296 584,296 583,295 582,294 581,294 580,293 579,292 578,291 577,290 576,289 575,288 575,287 574,287 573,287 573,288 573,289 573,290 573,291 573,292 573,293 573,294 573,295 574,296 574,297 574,298 574,299 573,300 572,299 572,298 572,297 572,298 572,299 573,300 574,300 574,299 574,298 574,297 575,296 576,295 577,295 578,296 579,296 580,296 581,297 582,297 583,298 584,298 585,298 586,299 587,299 588,299 589,300 590,300 591,300 592,300 593,301 594,301 595,301 596,301 597,301 598,301 599,301 600,301 599,301 598,301 597,301 596,301 595,301 594,301 593,301 592,300 593,299 594,299 595,299 596,299 597,299 598,299 599,299 600,299 601,299 602,300 603,300 604,300 605,301 604,302 603,302 602,302 603,302 604,302 605,301 606,301 607,301 608,301 609,301 610,301 611,301 612,300 613,300 614,300 615,300 616,299 617,299 618,299 619,298 620,298 621,297 622,297 623,296 624,295 625,295 626,294 627,293 628,292 629,291 629,290 630,289 631,288 631,287 632,286 632,285 632,284 633,283 633,282 633,281 633,280 633,279 633,278 632,277 633,276 633,275 633,274 633,273 633,272 632,271 632,270 632,269 631,268 631,267 630,266 629,265 629,264 628,263 627,263 626,262 625,261 624,261 623,260 622,259 621,259 620,259 619,258 618,258 617,257 616,257 615,257 614,256 613,256 612,256 611,255 610,255 609,255 608,255 607,254 606,254 605,254 604,253 603,253 602,253 601,253 600,252 599,252 598,252 597,252 596,251 595,251 594,251 593,250 592,250 591,250 590,249 589,249 588,249 587,248 586,248 585,248 584,247 583,246 582,246 581,245 580,245 579,244 578,243 577,242 576,241 575,240 575,239 574,238 574,237 574,236 574,235 574,234 574,233 574,232 575,231 575,230 575,229 576,228 576,227 577,226 578,225 579,224 580,223 581,222 582,222 583,221 584,220 585,220 586,220 587,219 588,219 589,219 590,218 591,218 592,218 593,218 594,218 595,218 596,218 597,218 598,218 599,218 600,218 601,218 602,218 603,218 604,218 605,218 606,219 607,219 608,219 609,219 610,220 611,220 612,220 613,221 614,221 615,222 616,222 617,223 618,223 619,224 620,224 621,225 622,226 623,227 624,228 625,229 626,230 626,231 626,232 627,233 627,234 627,235 627,234 627,233 628,232 628,231 628,230 628,229 628,228 628,227 628,226 628,225 628,226 628,227 628,228 628,229 628,230 628,231 628,232 627,233 626,232 626,231 626,230 626,229 625,228 624,227 623,226 622,226 621,225 620,224 619,224 618,223 617,222 616,222 615,221 616,220 617,220 618,220 619,221 620,222 621,222 622,223 623,224 624,224 625,225 626,225 626,224 625,225 624,224 623,223 622,223 621,222 620,221 619,221 618,220 617,220 616,220 615,219 614,219 613,219 612,218 611,218 610,218 609,217 608,217 607,217 606,217 605,216 604,216 603,216 602,216 601,216 600,216 599,216 598,216 597,216 596,216 595,216 594,216 593,216 592,216 591,216" stroke="black" stroke-width="1" /><polyline fill="none" points="395,216 394,217 393,217 392,217 391,217 390,218 389,218 388,218 387,219 386,219 385,220 384,221 383,222 382,222 382,223 381,224 380,225 379,226 379,227 379,228 378,229 378,230 378,231 378,232 377,233 377,234 377,235 377,236 377,235 377,234 377,233 378,232 379,233 379,234 379,235 379,236 379,237 378,238 378,239 378,240 378,241 379,242 379,243 379,244 380,245 381,246 382,247 383,248 384,249 385,250 386,250 387,251 388,251 389,252 390,252 391,252 392,253 393,253 394,254 395,254 396,254 397,255 398,255 399,255 400,256 401,256 402,256 403,256 404,257 405,257 406,257 407,258 408,258 409,258 410,258 411,259 412,259 413,259 414,259 415,260 416,260 417,260 418,261 419,261 420,261 421,262 422,262 423,262 424,263 425,263 426,264 427,265 428,265 429,266 430,267 431,267 432,268 433,269 434,270 435,271 435,272 436,273 436,274 437,275 437,276 437,277 437,278 437,279 437,280 436,281 436,282 436,283 435,284 435,285 434,286 434,287 433,288 432,289 431,290 430,291 429,292 428,293 427,294 426,295 425,295 424,296 423,296 422,297 421,297 420,297 419,298 418,298 417,299 416,299 415,299 414,299 413,299 412,299 411,299 410,299 409,300 408,300 407,300 406,299 405,299 404,299 403,299 402,299 401,299 400,299 399,299 398,299 397,298 396,298 395,298 394,298 393,297 392,297 391,297 390,296 389,295 388,295 387,294 386,294 385,293 384,292 383,291 382,290 381,289 380,288 380,287 380,288 380,289 381,290 382,291 383,292 384,293 385,294 386,294 387,295 388,295 389,296 388,297 387,297 386,297 385,296 384,296 383,295 382,295 381,295 380,295 380,296 380,297 379,298 378,297 378,296 378,295 378,294 378,293 378,292 378,291 378,290 378,289 378,288 378,287 378,288 378,289 378,290 378,291 378,292 378,293 378,294 378,295 378,296 378,297 377,298 378,299 379,299 379,298 380,297 380,296 381,295 382,295 383,295 384,296 385,296 386,297 387,297 388,297 389,298 390,298 391,299 392,299 393,299 394,300 395,300 396,300 397,300 398,301 399,301 400,301 401,301 402,301 403,301 404,301 405,301 406,301 407,302 408,302 409,302 410,301 411,301 412,301 413,301 414,301 415,301 416,301 417,301 418,300 419,300 420,300 421,300 422,299 423,299 424,298 425,298 426,297 427,297 428,296 429,295 430,295 431,294 432,293 433,292 434,291 435,290 435,289 436,288 436,287 437,286 437,285 438,284 438,283 438,282 438,281 439,280 439,279 439,278 439,277 439,276 439,275 438,274 438,273 438,272 438,271 437,270 437,269 437,268 436,267 436,266 435,265 434,264 433,263 432,262 431,262 430,261 429,260 428,260 427,259 426,259 425,259 424,258 423,258 422,257 421,257 420,257 419,256 418,256 417,256 416,255 415,255 414,255 413,255 412,254 411,254 410,254 409,253 408,253 407,253 406,253 405,252 404,252 403,252 402,251 401,251 400,251 399,251 398,250 397,250 396,250 395,249 394,249 393,249 392,248 391,248 390,247 389,247 388,246 387,246 386,245 385,244 384,244 383,243 382,242 381,241 381,240 380,239 380,238 379,237 379,236 379,235 379,234 379,233 380,232 380,231 380,230 381,229 381,228 382,227 382,226 383,225 384,224 385,223 386,222 387,222 388,221 389,221 390,220 391,219 392,219 393,219 394,219 395,218 396,218 397,218 398,218 399,218 400,218 401,218 402,218 403,218 404,218 405,218 406,218 407,218 408,218 409,218 410,218 411,219 412,219 413,219 414,219 415,220 416,220 417,220 418,221 419,221 420,222 421,222 422,222 423,223 424,224 425,224 426,225 427,226 428,226 429,227 430,228 430,229 431,230 431,231 432,232 432,233 432,234 432,235 433,235 434,235 434,234 434,233 434,232 434,233 434,234 433,235 432,234 432,233 432,232 432,231 433,230 433,229 433,228 433,227 433,226 433,225 434,224 434,223 434,222 433,222 432,222 432,223 431,224 430,225 429,224 428,223 427,223 426,222 425,221 424,221 423,220 422,220 421,219 420,219 419,219 418,219 417,218 416,218 415,218 414,217 413,217 412,217 411,217 410,216 409,216 408,216 407,216 406,216 405,216 404,216 403,216 402,216 401,216 400,216 399,216 398,216 397,216 396,216" stroke="black" stroke-width="1" /><polyline fill="none" points="40,216 39,217 38,217 37,217 36,218 35,218 34,218 33,219 32,219 31,220 30,220 29,221 28,222 27,223 26,224 25,225 25,226 24,227 24,228 23,229 23,230 23,231 23,232 23,233 23,234 23,235 23,236 23,237 23,238 23,239 23,240 24,241 24,242 24,243 25,244 25,245 26,246 27,247 28,248 29,249 30,249 31,250 32,251 33,251 34,252 35,252 36,252 37,253 38,253 39,254 40,254 41,254 42,255 43,255 44,255 45,256 46,256 47,256 48,256 49,257 50,257 51,257 52,257 53,258 54,258 55,258 56,259 57,259 58,259 59,259 60,260 61,260 62,260 63,261 64,261 65,261 66,262 67,262 68,262 69,263 70,263 71,264 72,264 73,265 74,266 75,266 76,267 77,268 78,269 79,270 80,271 81,272 81,273 82,274 82,275 82,276 82,277 82,278 82,279 82,280 82,281 81,282 81,283 80,284 80,285 79,286 79,287 78,288 77,289 77,290 76,291 75,292 74,292 73,293 72,294 71,295 70,295 69,296 68,296 67,297 66,297 65,298 64,298 63,298 62,299 61,299 60,299 59,299 58,299 57,299 56,299 55,299 54,300 53,300 52,300 51,299 50,299 49,299 48,299 47,299 46,299 45,299 44,299 43,299 42,298 41,298 40,298 39,297 38,297 37,297 36,296 35,296 34,295 33,295 32,294 31,293 30,293 29,292 28,291 27,290 26,289 26,288 25,287 25,286 24,286 23,286 23,287 23,288 23,289 23,290 23,291 23,292 23,293 23,294 23,295 23,296 23,297 23,298 23,299 23,300 23,299 23,298 23,297 23,296 23,295 23,294 23,293 23,292 23,291 23,290 23,289 23,288 23,287 24,286 25,287 25,288 26,289 26,290 27,291 28,292 29,293 30,293 31,294 32,295 33,295 34,296 33,297 32,297 31,297 30,296 29,296 28,295 27,295 26,295 25,295 25,296 25,297 25,298 25,299 25,298 25,297 25,296 26,295 27,295 28,295 29,296 30,296 31,297 32,297 33,297 34,298 35,298 36,299 37,299 38,299 39,300 40,300 41,300 42,300 43,301 44,301 45,301 46,301 47,301 48,301 49,301 50,301 51,301 52,302 53,302 54,302 55,301 56,301 57,301 58,301 59,301 60,301 61,301 62,301 63,300 64,300 65,300 66,299 67,299 68,299 69,298 70,298 71,297 72,297 73,296 74,296 75,295 76,294 77,293 78,292 79,291 80,290 80,289 81,288 82,287 82,286 83,285 83,284 83,283 83,282 84,281 84,280 84,279 84,278 84,277 84,276 84,275 84,274 83,273 83,272 83,271 83,270 82,269 82,268 81,267 81,266 80,265 79,264 78,263 77,262 76,262 75,261 74,260 73,260 72,259 71,259 70,258 69,258 68,258 67,257 66,257 65,257 64,256 63,256 62,256 61,255 60,255 59,255 58,254 57,254 56,254 55,254 54,253 53,253 52,253 51,253 50,252 49,252 48,252 47,251 46,251 45,251 44,251 43,250 42,250 41,250 40,249 39,249 38,249 37,248 36,248 35,247 34,247 33,246 32,246 31,245 30,244 29,243 28,242 27,241 26,240 25,239 25,238 25,237 25,236 25,235 25,234 25,233 25,232 25,231 25,230 26,229 26,228 27,227 28,226 28,225 29,224 30,223 31,223 32,222 33,221 34,221 35,220 36,220 37,219 38,219 39,219 40,218 41,218 42,218 43,218 44,218 45,218 46,218 47,218 48,218 49,218 50,218 51,218 52,218 53,218 54,218 55,218 56,219 57,219 58,219 59,219 60,219 61,220 62,220 63,220 64,221 65,221 66,222 67,222 68,223 69,223 70,224 71,225 72,225 73,226 74,227 75,228 76,229 76,230 77,231 77,232 77,233 77,234 77,235 78,235 79,235 79,234 79,233 79,232 79,231 79,230 79,229 79,228 79,227 79,226 79,225 79,224 79,223 79,222 78,222 77,222 77,223 77,224 76,225 75,225 74,224 73,223 72,222 71,222 70,221 69,221 68,220 67,220 66,219 65,219 64,219 63,218 62,218 61,218 60,217 59,217 58,217 57,217 56,217 55,216 54,216 53,216 52,216 51,216 50,216 49,216 48,216 47,216 46,216 45,216 44,216 43,216 42,216 41,216" stroke="black" stroke-width="1" /><polyline fill="none" points="284,13 283,14 282,14 281,14 280,15 279,15 278,16 277,17 276,17 275,18 274,19 273,19 272,20 271,20 270,21 269,22 268,22 267,23 266,24 265,24 264,25 263,26 262,26 261,27 260,28 259,28 258,29 257,29 256,30 255,31 254,31 253,32 252,33 251,33 250,34 249,35 248,35 247,36 246,37 245,37 244,38 243,39 242,39 241,40 240,40 239,41 238,42 237,42 236,43 235,44 234,44 233,45 232,46 231,46 230,47 229,48 228,48 227,49 226,50 225,50 224,51 223,51 222,52 221,53 220,53 219,54 218,55 217,55 216,56 215,57 214,57 213,58 212,59 211,59 210,60 209,61 208,61 207,62 206,63 205,63 204,64 203,65 202,65 201,66 200,66 199,67 198,68 197,68 196,69 195,70 194,70 193,71 192,72 191,72 190,73 189,74 188,74 187,75 186,75 185,76 184,77 183,77 182,78 181,79 180,79 179,80 178,81 177,81 176,82 175,82 174,83 173,84 172,84 171,85 170,86 169,86 168,87 167,88 166,89 165,88 165,87 165,86 165,85 165,84 165,83 165,82 165,81 165,80 165,79 165,78 165,77 165,76 165,75 165,74 165,73 165,72 165,71 165,70 165,69 165,68 165,67 165,66 165,65 165,64 165,63 165,62 165,61 165,60 165,59 165,58 165,57 165,56 165,55 165,54 165,53 165,52 164,51 164,50 163,49 162,49 161,49 160,48 159,48 158,48 157,48 156,48 155,48 154,48 153,48 152,48 151,48 150,48 149,48 148,48 147,48 146,48 145,48 144,48 143,48 142,48 141,48 140,48 139,48 138,48 137,48 136,48 135,48 134,48 133,48 132,48 131,48 130,48 129,48 128,48 127,48 126,48 125,48 124,48 123,48 122,48 121,48 120,48 119,48 118,48 117,48 116,48 115,48 114,48 113,48 112,48 111,48 110,48 109,49 108,49 107,49 106,50 105,51 105,52 105,53 105,54 105,55 105,56 105,57 105,58 105,59 105,60 105,61 105,62 105,63 105,64 105,65 105,66 105,67 105,68 105,69 105,70 105,71 105,72 105,73 105,74 105,75 105,76 105,77 105,78 105,79 105,80 105,81 105,82 105,83 105,84 105,85 105,86 105,87 105,88 105,89 105,90 105,91 105,92 105,93 105,94 105,95 105,96 105,97 105,98 105,99 105,100 105,101 105,102 105,103 105,104 105,105 105,106 105,107 105,108 105,109 105,110 105,111 105,112 105,113 105,114 105,115 105,116 105,117 105,118 105,119 105,120 105,121 105,122 105,123 105,124 105,125 105,126 105,127 104,128 103,129 102,130 101,130 100,131 99,132 98,132 97,133 96,134 95,134 94,135 93,136 92,136 91,137 90,137 89,138 88,139 87,139 86,140 85,141 84,141 83,142 82,143 81,143 80,144 79,145 78,145 77,146 76,147 75,147 74,148 73,148 72,149 71,150 70,150 69,151 68,152 67,152 66,153 65,154 64,154 63,155 62,156 61,156 60,157 59,157 58,158 57,159 56,159 55,160 54,161 53,161 52,162 51,163 50,163 49,164 48,165 47,165 46,166 45,167 44,167 43,168 42,168 41,169 40,170 39,170 38,171 37,172 36,172 35,173 34,174 33,174 32,175 31,176 30,176 29,177 28,178 27,178 26,179 25,179 24,180 23,181 22,181 21,182 20,183 19,183 18,184 17,185 16,186 15,187 15,188 14,189 14,190 14,191 15,192 15,193 15,194 16,195 17,196 18,196 19,196 20,196 21,196 22,196 23,196 24,195 25,194 26,194 27,193 28,192 29,192 30,191 31,191 32,190 33,189 34,189 35,188 36,187 37,187 38,186 39,185 40,185 41,184 42,183 43,183 44,182 45,181 46,181 47,180 48,180 49,179 50,178 51,178 52,177 53,176 54,176 55,175 56,174 57,174 58,173 59,172 60,172 61,171 62,170 63,170 64,169 65,169 66,168 67,167 68,167 69,166 70,165 71,165 72,164 73,163 74,163 75,162 76,161 77,161 78,160 79,159 80,159 81,158 82,158 83,157 84,156 85,156 86,155 87,154 88,154 89,153 90,152 91,152 92,151 93,150 94,150 95,149 96,148 97,148 98,147 99,147 100,146 101,145 102,145 103,144 104,143 105,143 106,142 107,141 108,141 109,140 110,139 111,139 112,138 113,137 114,137 115,136 116,136 117,135 118,134 119,134 120,133 121,132 122,132 123,131 124,130 125,130 126,129 127,128 128,128 129,127 130,126 131,126 132,125 133,125 134,124 135,123 136,123 137,122 138,121 139,121 140,120 141,119 142,119 143,118 144,117 145,117 146,116 147,115 148,115 149,114 150,114 151,113 152,112 153,112 154,111 155,110 156,110 157,109 158,108 159,108 160,107 161,106 162,106 163,105 164,104 165,104 166,103 167,102 168,102 169,101 170,101 171,100 172,99 173,99 174,98 175,97 176,97 177,96 178,95 179,95 180,94 181,93 182,93 183,92 184,91 185,91 186,90 187,90 188,89 189,88 190,88 191,87 192,86 193,86 194,85 195,84 196,84 197,83 198,82 199,82 200,81 201,80 202,80 203,79 204,79 205,78 206,77 207,77 208,76 209,75 210,75 211,74 212,73 213,73 214,72 215,71 216,71 217,70 218,69 219,69 220,68 221,68 222,67 223,66 224,66 225,65 226,64 227,64 228,63 229,62 230,62 231,61 232,60 233,60 234,59 235,58 236,58 237,57 238,57 239,56 240,55 241,55 242,54 243,53 244,53 245,52 246,51 247,51 248,50 249,49 250,49 251,48 252,47 253,47 254,46 255,46 256,45 257,44 258,44 259,43 260,42 261,42 262,41 263,40 264,40 265,39 266,38 267,38 268,37 269,36 270,36 271,35 272,35 273,34 274,33 275,33 276,32 277,31 278,31 279,30 280,29 281,29 282,28 283,27 284,27 285,27 286,28 287,28 288,29 289,30 290,30 291,31 292,32 293,32 294,33 295,34 296,34 297,35 298,35 299,36 300,37 301,37 302,38 303,39 304,39 305,40 306,41 307,41 308,42 309,43 310,43 311,44 312,45 313,45 314,46 315,47 316,47 317,48 318,48 319,49 320,50 321,50 322,51 323,52 324,52 325,53 326,54 327,54 328,55 329,56 330,56 331,57 332,58 333,58 334,59 335,59 336,60 337,61 338,61 339,62 340,63 341,63 342,64 343,65 344,65 345,66 346,67 347,67 348,68 349,69 350,69 351,70 352,71 353,71 354,72 355,73 356,73 357,74 358,74 359,75 360,76 361,76 362,77 363,78 364,78 365,79 366,80 367,80 368,81 369,82 370,82 371,83 372,84 373,84 374,85 375,85 376,86 377,87 378,87 379,88 380,89 381,89 382,90 383,91 384,91 385,92 386,93 387,93 388,94 389,95 390,95 391,96 392,97 393,97 394,98 395,99 396,99 397,100 398,100 399,101 400,102 401,102 402,103 403,104 404,104 405,105 406,105 407,106 408,107 409,107 410,108 411,109 412,109 413,110 414,111 415,111 416,112 417,113 418,113 419,114 420,115 421,115 422,116 423,117 424,117 425,118 426,119 427,119 428,120 429,120 430,121 431,122 432,122 433,123 434,124 435,124 436,125 437,126 438,126 439,127 440,128 441,128 442,129 443,130 444,130 445,131 446,132 447,132 448,133 449,133 450,134 451,135 452,135 453,136 454,137 455,137 456,138 457,139 458,139 459,140 460,141 461,141 462,142 463,142 464,143 465,144 466,144 467,145 468,146 469,146 470,147 471,148 472,148 473,149 474,150 475,150 476,151 477,151 478,152 479,153 480,153 481,154 482,155 483,155 484,156 485,157 486,157 487,158 488,159 489,159 490,160 491,161 492,161 493,162 494,163 495,163 496,164 497,165 498,165 499,166 500,166 501,167 502,168 503,168 504,169 505,170 506,170 507,171 508,172 509,172 510,173 511,174 512,174 513,175 514,176 515,176 516,177 517,178 518,178 519,179 520,180 521,180 522,181 523,181 524,182 525,183 526,183 527,184 528,185 529,185 530,186 531,187 532,187 533,188 534,189 535,189 536,190 537,191 538,191 539,192 540,192 541,193 542,194 543,194 544,195 545,195 546,196 547,196 548,196 549,196 550,196 551,196 552,195 553,195 553,194 554,193 554,192 554,191 554,190 554,189 554,188 554,187 553,186 552,185 551,185 550,184 549,184 548,183 547,182 546,182 545,181 544,180 543,180 542,179 541,178 540,178 539,177 538,176 537,176 536,175 535,174 534,174 533,173 532,173 531,172 530,171 529,171 528,170 527,169 526,169 525,168 524,167 523,167 522,166 521,165 520,165 519,164 518,163 517,163 516,162 515,162 514,161 513,160 512,160 511,159 510,158 509,158 508,157 507,156 506,156 505,155 504,154 503,154 502,153 501,152 500,152 499,151 498,150 497,150 496,149 495,149 494,148 493,147 492,147 491,146 490,145 489,145 488,144 487,143 486,143 485,142 484,141 483,141 482,140 481,139 480,139 479,138 478,138 477,137 476,136 475,136 474,135 473,134 472,134 471,133 470,132 469,132 468,131 467,130 466,130 465,129 464,129 463,128 462,127 461,127 460,126 459,125 458,125 457,124 456,123 455,123 454,122 453,121 452,121 451,120 450,119 449,119 448,118 447,117 446,117 445,116 444,115 443,115 442,114 441,114 440,113 439,112 438,112 437,111 436,110 435,110 434,109 433,108 432,108 431,107 430,106 429,106 428,105 427,104 426,104 425,103 424,102 423,102 422,101 421,101 420,100 419,99 418,99 417,98 416,97 415,97 414,96 413,95 412,95 411,94 410,93 409,93 408,92 407,91 406,91 405,90 404,90 403,89 402,88 401,88 400,87 399,86 398,86 397,85 396,84 395,84 394,83 393,82 392,82 391,81 390,81 389,80 388,79 387,79 386,78 385,77 384,77 383,76 382,75 381,75 380,74 379,73 378,73 377,72 376,71 375,71 374,70 373,69 372,69 371,68 370,67 369,67 368,66 367,66 366,65 365,64 364,64 363,63 362,62 361,62 360,61 359,60 358,60 357,59 356,58 355,57 356,56 357,56 358,55 359,54 360,54 361,53 362,52 363,52 364,51 365,51 366,50 367,49 368,49 369,48 370,47 371,47 372,46 373,45 374,45 375,44 376,43 377,43 378,42 379,41 380,41 381,40 382,39 383,39 384,38 385,38 386,37 387,36 388,36 389,35 390,34 391,34 392,33 393,32 394,32 395,31 396,30 397,30 398,31 399,31 400,32 401,33 402,33 403,34 404,35 405,35 406,36 407,37 408,37 409,38 410,39 411,39 412,40 413,41 414,41 415,42 416,42 417,43 418,44 419,44 420,45 421,46 422,46 423,47 424,48 425,48 426,49 427,50 428,50 429,51 430,52 431,52 432,53 433,54 434,54 435,55 436,56 437,56 438,57 439,58 440,58 441,59 442,60 443,60 444,61 445,62 446,62 447,63 448,63 449,64 450,65 451,65 452,66 453,67 454,67 455,68 456,69 457,69 458,70 459,71 460,71 461,72 462,73 463,73 464,74 465,75 466,75 467,76 468,77 469,77 470,78 471,79 472,79 473,80 474,81 475,81 476,82 477,82 478,83 479,84 480,84 481,85 482,86 483,86 484,87 485,88 486,88 487,89 488,90 489,91 490,91 491,92 492,92 493,93 494,94 495,94 496,95 497,96 498,96 499,97 500,98 501,98 502,99 503,100 504,100 505,101 506,102 507,102 508,103 509,104 510,104 511,105 512,106 513,106 514,107 515,108 516,108 517,109 518,110 519,110 520,111 521,111 522,112 523,113 524,113 525,114 526,115 527,115 528,116 529,117 530,117 531,118 532,119 533,119 534,120 535,121 536,121 537,122 538,123 539,123 540,124 541,125 542,125 543,126 544,127 545,127 546,128 547,129 548,129 549,130 550,130 551,131 552,132 553,132 554,133 555,134 556,135 557,135 558,136 559,137 560,137 561,138 562,138 563,139 564,140 565,140 566,141 567,142 568,142 569,143 570,144 571,144 572,145 573,146 574,146 575,147 576,148 577,148 578,149 579,150 580,150 581,151 582,152 583,152 584,153 585,154 586,154 587,155 588,156 589,156 590,157 591,158 592,158 593,159 594,159 595,160 596,161 597,161 598,162 599,163 600,163 601,164 602,165 603,165 604,166 605,167 606,167 607,168 608,169 609,169 610,170 611,171 612,171 613,172 614,173 615,173 616,174 617,175 618,175 619,176 620,177 621,177 622,178 623,178 624,179 625,180 626,181 627,181 628,182 629,182 630,183 631,184 632,184 633,185 634,186 635,187 636,187 637,188 638,188 639,189 640,190 641,190 642,191 643,192 644,192 645,192 646,192 647,192 648,192 649,192 650,192 651,191 652,190 652,189 652,188 653,187 653,186 652,185 652,184 652,183 651,182 650,182 649,181 648,181 647,180 646,179 645,179 644,178 643,177 642,177 641,176 640,175 639,175 638,174 637,173 636,173 635,172 634,171 633,171 632,170 631,169 630,169 629,168 628,167 627,167 626,166 625,165 624,165 623,164 622,163 621,163 620,162 619,161 618,161 617,160 616,159 615,159 614,158 613,157 612,157 611,156 610,156 609,155 608,154 607,154 606,153 605,152 604,152 603,151 602,150 601,150 600,149 599,148 598,148 597,147 596,146 595,146 594,145 593,144 592,144 591,143 590,142 589,142 588,141 587,140 586,140 585,139 584,138 583,138 582,137 581,136 580,136 579,135 578,134 577,134 576,133 575,133 574,132 573,131 572,131 571,130 570,129 569,129 568,128 567,127 566,127 565,126 564,125 563,125 562,124 561,123 560,123 559,122 558,121 557,121 556,120 555,119 554,119 553,118 552,117 551,117 550,116 549,115 548,115 547,114 546,113 545,113 544,112 543,111 542,111 541,110 540,109 539,109 538,108 537,108 536,107 535,106 534,106 533,105 532,104 531,104 530,103 529,102 528,102 527,101 526,100 525,100 524,99 523,98 522,98 521,97 520,96 519,96 518,95 517,94 516,94 515,93 514,92 513,92 512,91 511,90 510,90 509,89 508,88 507,88 506,87 505,86 504,86 503,85 502,84 501,84 500,83 499,83 498,82 497,81 496,81 495,80 494,79 493,79 492,78 491,77 490,77 489,76 488,75 487,75 486,74 485,73 484,73 483,72 482,71 481,71 480,70 479,69 478,69 477,68 476,67 475,67 474,66 473,65 472,65 471,64 470,63 469,63 468,62 467,61 466,61 465,60 464,60 463,59 462,58 461,58 460,57 459,56 458,56 457,55 456,54 455,54 454,53 453,52 452,52 451,51 450,50 449,50 448,49 447,48 446,48 445,47 444,46 443,46 442,45 441,44 440,44 439,43 438,42 437,42 436,41 435,40 434,40 433,39 432,38 431,38 430,37 429,36 428,36 427,35 426,35 425,34 424,33 423,33 422,32 421,31 420,31 419,30 418,29 417,29 416,28 415,27 414,27 413,26 412,25 411,25 410,24 409,23 408,23 407,22 406,21 405,21 404,20 403,19 402,19 401,18 400,17 399,17 398,17 397,17 396,17 395,17 394,17 393,18 392,19 391,19 390,20 389,20 388,21 387,22 386,22 385,23 384,24 383,24 382,25 381,26 380,26 379,27 378,27 377,28 376,29 375,29 374,30 373,31 372,31 371,32 370,33 369,33 368,34 367,35 366,35 365,36 364,37 363,37 362,38 361,39 360,39 359,40 358,41 357,41 356,42 355,43 354,43 353,44 352,44 351,45 350,46 349,46 348,47 347,48 346,48 345,49 344,50 343,50 342,49 341,49 340,48 339,47 338,47 337,46 336,45 335,45 334,44 333,43 332,43 331,42 330,42 329,41 328,40 327,40 326,39 325,38 324,38 323,37 322,36 321,36 320,35 319,34 318,34 317,33 316,32 315,32 314,31 313,30 312,30 311,29 310,29 309,28 308,27 307,27 306,26 305,25 304,25 303,24 302,23 301,23 300,22 299,21 298,21 297,20 296,20 295,19 294,18 293,18 292,17 291,16 290,16 289,15 288,14 287,14 286,14 285,13" stroke="black" stroke-width="1" /></svg>